<svg xmlns="http://www.w3.org/2000/svg" viewBox="0 0 4330.07 4822.61">
    <defs>
        <style>
            .cls-1{fill:#fff;}.cls-1,.cls-2,.cls-3{stroke:#fe8045;stroke-linecap:round;stroke-width:50px;}.cls-1,.cls-3{stroke-linejoin:round;}.cls-2,.cls-3{fill:none;}.cls-2{stroke-miterlimit:10;}.cls-4{fill:#fe8045;}
        </style>
    </defs>
    <g id="레이어_2" data-name="레이어 2">
        <g id="레이어_1-2" data-name="레이어 1">
            <path class="cls-1"
                  d="M2864.62,3185.44c111.12-66.67,81.49-1333.44,81.49-1333.44-7.41-103.71-88.9-229.65-133.35-288.91-14.81-22.23-51.85-29.63-74.08-7.41-66.67,66.67-133.34,192.61-163,244.47-7.41,14.81-22.23,22.22-44.45,29.63l-726,37c-14.81,0-37-7.41-44.44-22.23-88.9-125.93-185.21-177.79-237.06-200-22.23-7.41-44.45-7.41-59.27,14.81-81.48,155.57-74.08,266.69-66.67,318.55,0,7.41,0,22.22-7.41,29.63-111.12,229.65-133.34,1185.28-133.34,1185.28S1997.88,3704,2864.62,3185.44Z"/>
            <line class="cls-2" x1="1879.35" y1="2170.55" x2="1864.54" y2="2274.26"/>
            <line class="cls-2" x1="2323.83" y1="2200.18" x2="2301.61" y2="2296.48"/>
            <path class="cls-3" d="M2020.11,2311.3l133.34,29.63-88.9,348.18S1990.47,2400.19,2020.11,2311.3Z"/>
            <path class="cls-3"
                  d="M2175.67,1844.59V1622.35s-303.72,7.41-266.68-363c0,0,66.67-111.12,266.68,340.77,0,0,125.94-192.61,370.4-200,0,0,37,244.47-348.17,214.83"/>
            <path class="cls-4"
                  d="M1294.12,674.13c7.41,0,14.82-7.41,22.22-7.41s14.82,0,22.23,7.41c14.81,14.81,14.81,22.22,0,37L1323.75,726c-7.41,0-7.41,7.41-14.81,7.41C1183,800.06,1116.33,844.51,997.8,940.82L975.58,963c-7.41,7.41-14.82,14.82-29.64,22.22-7.4,7.41-14.81,14.82-29.63,14.82-7.41,0-22.22,0-29.63-7.41-14.82-14.81-22.22-22.22-37-29.63-7.41,0-7.41-7.41-14.82-14.82s-7.4-14.81-7.4-14.81c0-7.41,7.4-22.23,14.81-29.63s14.82-22.23,29.63-29.64l29.64-29.63c14.81-14.81,37-29.63,59.26-44.45,22.22-22.22,59.26-44.44,96.3-66.67,37-29.63,88.9-59.26,140.76-88.89-7.41-7.41-7.41-14.82-14.82-22.23-148.16,81.49-222.24,133.35-348.18,251.87-7.4,7.41-7.4,7.41-14.81,7.41,0,0-7.41,7.41-14.82,7.41s-7.41,7.41-14.81,7.41H775.56c-14.82,0-22.22-7.41-22.22-14.82V866.74c0-7.41,0-7.41,7.4-14.82,0-7.41,7.41-7.41,7.41-14.82l7.41-7.4,22.22-22.23c7.41-7.41,14.82-14.81,22.23-14.81,7.41-7.41,14.81-14.82,29.63-22.23,7.41-7.41,22.22-22.22,37-29.63,14.82-14.82,29.63-22.22,51.86-37,0-7.41-7.41-7.41-7.41-14.82s-7.41-7.4-7.41-14.81c0,0-7.41,7.41-22.22,14.81-7.41,7.41-22.23,14.82-37,29.64-14.82,7.4-29.64,22.22-44.45,37s-29.63,22.22-44.45,37-22.22,22.22-37,29.63c-7.41,7.41-14.82,14.81-22.22,14.81l-14.82,14.82c-7.41,7.41-14.82,7.41-22.22,7.41s-14.82,0-22.23-7.41c14.82-14.82,14.82-29.63,14.82-37s0-14.82,7.41-22.22,7.4-14.82,14.81-14.82L708.89,763c7.41,0,7.41-7.4,7.41-7.4,163-148.16,251.87-214.84,444.48-311.14,7.4-7.41,14.81-7.41,22.22-14.82s14.82-7.4,22.22-14.81c7.41,0,14.82-7.41,22.23-7.41h22.22c7.41,0,14.82,0,14.82,7.41s7.41,7.41,7.41,14.81v14.82c0,7.41-7.41,14.82-14.82,14.82-7.41,7.4-22.22,14.81-37,22.22s-22.22,14.82-37,14.82c-29.63,14.81-51.86,29.63-74.08,44.44s-51.86,29.64-74.08,44.45c0,7.41,7.41,7.41,7.41,14.82s7.41,7.4,7.41,14.81c44.44-29.63,66.67-44.45,118.52-66.67Q1212.64,526,1234.86,526c14.81,0,29.63,7.4,37,22.22s14.81,29.63,22.22,44.45c0,7.41,7.41,14.81,0,22.22,0,7.41-7.41,14.82-7.41,22.23-7.41,7.41-7.41,14.81-14.81,14.81s-14.82,7.41-22.23,7.41c-140.75,74.08-207.42,118.53-326,222.24,7.41,7.41,7.41,14.82,14.82,22.23C1079.29,792.66,1146,748.21,1294.12,674.13ZM1027.43,266.69c7.41-7.41,22.23-14.82,37-14.82,14.82-7.41,22.23-14.81,37-14.81,14.82-7.41,22.23-7.41,29.63-7.41s14.82,0,22.23,7.41c7.41,14.81,7.41,22.22,0,37-7.41,7.4-22.23,22.22-37,29.63,14.81,7.41,22.22,14.81,29.63,29.63s7.41,37,0,51.86-22.22,37-44.45,51.85c-22.22,22.23-44.45,37-74.08,59.27S960.76,540.78,923.72,563c-37,29.63-74.08,51.85-103.71,74.08s-59.27,37-81.49,51.85-44.45,22.23-66.67,22.23-37,0-51.86-14.82c-7.41-7.41-14.81-22.22-14.81-44.45-7.41,7.41-22.23,14.82-37,22.23s-22.23,7.41-29.64,0c-14.81-7.41-14.81-22.23-7.4-37s22.22-29.63,37-44.45c66.67-59.26,103.71-88.9,170.38-140.75L723.7,437.07c-7.4-7.41-7.4-22.22,0-29.63s7.41-14.82,22.23-22.22c7.41-7.41,22.22-14.82,29.63-22.23s22.22-14.81,29.63-14.81h22.23c7.4,0,14.81,7.4,14.81,7.4l14.82,14.82C923.72,318.54,960.76,303.73,1027.43,266.69Zm0,118.53c0-7.41-7.41-7.41-22.22-7.41-7.41,0-22.23,7.41-37,14.81s-29.63,14.82-51.86,29.64-37,22.22-59.26,37c-14.82,14.81-37,22.22-51.86,37s-29.63,29.63-44.45,37L731.11,563q-11.11,11.12,0,22.22c7.41,7.41,7.41,7.41,22.23,0,7.4-7.41,22.22-7.41,37-22.22s29.63-22.23,44.44-29.63c14.82-14.82,37-22.23,51.86-37s37-22.23,51.86-37,37-22.23,44.44-29.64c14.82-7.4,22.23-22.22,29.64-29.63C1027.43,400,1027.43,392.62,1027.43,385.22Z"/>
            <path class="cls-4"
                  d="M1434.87,570.42c-7.41-22.23-7.41-44.45,7.41-59.27,14.82-22.22,37-37,66.67-59.26,0-7.41,0-7.41-7.41-7.41V414.85l-111.12,37c-7.4,0-14.81,7.41-22.22,7.41H1346c-7.41,0-14.82-7.41-22.23-14.82s0-14.82,0-29.63c0-7.41,7.41-7.41,14.82-14.82s14.81-7.41,14.81-14.81c7.41,0,14.82-7.41,14.82-7.41h7.41c192.61-74.08,296.32-96.31,503.74-125.94h81.49c7.41,0,14.82,0,22.23,7.41,7.4,0,7.4,7.41,14.81,14.82v14.81c0,14.82-7.41,22.23-29.63,29.63h-37c-14.82,0-29.63,0-37,7.41H1872c-7.41,0-29.64,0-29.64,7.41v44.45c29.64,0,59.27,7.41,74.08,22.22S1946,429.66,1946,451.89s0,37-14.82,51.85-29.63,22.23-51.86,37c-22.22,7.41-44.44,14.82-74.08,22.23S1746,577.82,1709,585.23s-66.67,14.82-96.3,22.23-59.27,7.4-81.49,7.4-44.45,0-59.27-7.4C1449.69,607.46,1442.28,592.64,1434.87,570.42ZM1879.35,163H1909c7.4,0,14.81,7.41,14.81,14.82,7.41,14.82,0,29.63-22.22,37-7.41,0-14.82,7.41-22.23,7.41h-22.22c-163,22.22-244.46,37-400,88.89-7.41,7.41-14.82,7.41-29.64,14.82s-22.22,7.41-37,14.82-22.22,7.4-37,0c-7.4,0-22.22-7.41-22.22-22.23-7.41-7.41-7.41-14.81-14.82-22.22,0-7.41-7.4-14.82-7.4-22.23h0c0-7.4-7.41-7.4-7.41-14.81V237.05c7.41-7.4,14.81-22.22,29.63-22.22,14.82-7.41,29.63-14.82,44.45-14.82,133.34-44.44,200-66.67,333.36-88.89,14.82,0,22.22-7.41,29.63-7.41h51.86V81.49h0c-163,22.22-237.06,44.44-392.63,96.3h-7.41s-7.4,0-7.4,7.41c-7.41,0-14.82,7.41-22.23,7.41S1346,200,1346,200c-7.41,0-7.41,0-14.82,7.41h-29.63c-7.41,0-7.41-7.41-7.41-7.41,0-7.4-7.41-7.4-7.41-14.81V170.38c0-7.41,7.41-7.41,7.41-14.81,7.41-7.41,7.41-7.41,14.82-7.41s7.4-7.41,14.81-7.41,7.41-7.41,14.82-7.41,7.41,0,14.81-7.4c7.41,0,14.82-7.41,14.82-7.41,7.41,0,14.82-7.41,14.82-7.41,22.22-7.41,44.44-14.82,74.08-22.22L1546,66.67c103.71-22.22,148.16-37,251.88-51.85,37-7.41,59.26-7.41,81.48,0s29.64,14.81,29.64,37,0,29.63,7.4,44.44v29.63c0,7.41,0,7.41-7.4,14.82,0,7.41-7.41,7.41-14.82,7.41-7.41,7.41-22.22,7.41-29.63,7.41-14.82,0-22.23,0-37,7.4-163,22.23-244.47,44.45-407.44,96.31,0,7.41,7.4,14.81,7.4,22.22,163-59.26,251.88-74.08,422.26-96.3h14.82C1872,163,1879.35,163,1879.35,163Zm-37,296.33c0-7.41-7.4-14.82-14.81-14.82h-37c-14.82,0-29.63,0-51.86,7.41-22.22,0-37,7.41-59.26,14.81-14.82,7.41-37,7.41-51.86,14.82s-37,7.41-44.45,14.81c-14.81,7.41-22.22,14.82-29.63,22.23s-7.41,14.81-7.41,22.22,7.41,7.41,14.82,7.41h37c14.82,0,29.63-7.41,51.86-7.41,14.81-7.4,37-7.4,51.85-14.81s37-7.41,51.86-14.82c14.81,0,37-7.41,51.85-14.81s29.64-7.41,37-14.82Zm-229.64-81.49c0,7.41,7.4,7.41,7.4,14.81v14.82c7.41,0,14.82-7.41,22.23-7.41s14.81-7.41,22.22-7.41,22.23-7.4,29.63-7.4,22.23-7.41,29.64-7.41V348.18C1679.34,363,1657.11,370.4,1612.67,377.81Z"/>
            <path class="cls-4"
                  d="M2353.47,44.45c7.4,0,22.22,0,29.63,7.4q11.12,0,22.22,22.23c7.41,14.81,0,22.22-7.41,37,0,0-7.4,0-7.4,7.41-7.41,0-7.41,0-7.41,7.4h-88.9c-74.08-7.4-111.12-7.4-177.79-7.4h-29.63c-7.41,0-14.82,0-22.23-7.41-7.4,0-7.4-7.41-14.81-14.82,0-7.4-7.41-7.4-7.41-14.81s7.41-14.82,14.82-22.23,7.4-7.4,14.81-7.4h103.71V44.45h0V22.22l7.41-7.4,7.41-7.41c7.41,0,7.41-7.41,14.82-7.41h37c7.4,0,14.81,0,14.81,7.41,7.41,0,7.41,7.41,7.41,7.41,0,7.4,7.41,7.4,7.41,7.4v37h74.08C2346.06,44.45,2346.06,44.45,2353.47,44.45Zm-103.72,88.89c14.82,0,22.23,7.41,37,7.41,7.41,7.41,22.23,7.41,29.64,14.82l22.22,22.22c7.41,7.41,14.82,14.82,22.22,29.63s7.41,37,14.82,59.27v66.67c0,14.82,0,22.22-7.41,29.63,0,7.41-7.41,22.23-7.41,29.63-7.4,7.41-7.4,22.23-14.81,29.64s-7.41,14.81-14.82,22.22l-29.63,29.63c-7.41,7.41-14.82,7.41-29.63,14.82-22.23,7.4-37,14.81-59.27,14.81s-44.44-7.41-66.67-14.81-37-14.82-51.85-29.64c0-14.81-14.82-29.63-14.82-44.44-7.41-14.82-14.82-29.63-14.82-44.45,0-7.41,0-14.82-7.4-22.22v-88.9c0-7.41,7.4-14.82,7.4-22.23,7.41-29.63,29.64-59.26,59.27-74.08C2160.86,133.34,2197.9,125.93,2249.75,133.34Zm-29.63,288.92c7.41,0,14.82-7.41,22.23-7.41l7.4-7.41s7.41-7.41,7.41-14.82,7.41-7.4,7.41-14.81,0-7.41,7.41-14.82V259.28c0-7.41,0-7.41-7.41-14.81,0,0-7.41-7.41-7.41-14.82s-7.41-7.41-7.41-7.41-7.4,0-7.4-7.41h-59.27c-7.41,0-7.41,0-14.81,7.41-7.41,0-14.82,7.41-14.82,14.82-7.41,22.22-14.82,37-14.82,51.85v59.27c0,7.41,0,7.41,7.41,14.81,0,7.41,7.41,7.41,7.41,14.82s7.41,7.41,7.41,14.81,7.41,7.41,14.81,7.41h37Zm400,103.71c0,7.41,0,14.81-7.4,22.22,0,7.41-7.41,14.82-7.41,14.82-7.41,7.41-7.41,14.81-22.23,22.22-7.4,7.41-14.81,7.41-22.22,7.41s-14.82-7.41-22.22-14.82-7.41-14.81-14.82-29.63V503.74c14.82-59.26,22.22-88.89,37-155.56-22.22-7.41-37-7.41-59.26-14.82-14.82,66.67-22.23,96.3-29.64,155.57v14.81c0,7.41,0,14.82-7.4,14.82,0,7.41-7.41,7.41-7.41,14.82s-7.41,7.4-14.82,7.4-7.41,7.41-14.81,7.41-14.82,0-22.23-7.41-14.81-7.4-22.22-22.22c-7.41-7.41-7.41-14.82-7.41-22.23V466.7c44.45-148.16,59.26-222.24,81.49-377.81h0V59.26c0-7.41,0-14.81,7.41-22.22,14.81-7.41,22.22-14.82,29.63-14.82,7.41-7.41,14.81-7.41,22.22-7.41s14.82,0,22.23,7.41c7.4,0,7.4,7.41,14.81,7.41,0,7.41,7.41,7.41,7.41,14.82s7.41,7.4,7.41,14.81v59.27c0,14.81-7.41,22.22-7.41,29.63-7.41,44.45-14.82,66.67-22.22,103.71,22.22,7.41,37,7.41,59.26,14.82,14.82-59.27,22.22-88.9,37-148.16,0-7.41,0-14.82,7.41-22.23V81.49c0-7.41,0-7.41,7.41-7.41,7.4-7.41,14.81-14.82,22.22-14.82s14.82-7.41,29.63-7.41c7.41,0,14.82,7.41,22.23,7.41s7.4,7.41,14.81,14.82c0,0,7.41,7.41,7.41,14.81s7.41,7.41,7.41,14.82V163s-7.41,7.41-7.41,14.82,0,7.41-7.41,7.41C2679.42,318.54,2664.6,385.22,2620.15,526Z"/>
            <path class="cls-4"
                  d="M3212.8,763h0l7.4,7.41,22.23,22.23c7.41,7.4,7.41,14.81,14.81,22.22,0,7.41,0,14.82-7.4,22.22,0,7.41-7.41,7.41-14.82,7.41s-7.41,7.41-14.82,7.41h-14.81c-7.41,0-14.82-7.41-14.82-7.41-7.41,0-7.41-7.41-14.81-7.41s-7.41-7.4-7.41-7.4c-148.16-111.12-222.24-148.16-385.22-214.84,0,0-7.41,0-14.82-7.4-7.4,0-7.4,0-14.81-7.41s-22.23-7.41-37-14.82-22.23-14.81-29.63-22.22c-7.41-14.82-7.41-22.23-7.41-29.63s7.41-14.82,14.81-14.82c7.41-7.41,14.82-7.41,22.23-7.41,14.81,0,22.22,0,37,7.41s22.22,7.41,37,14.82H2798c7.4,0,14.81,7.4,29.63,7.4,7.41,7.41,22.22,7.41,29.63,14.82v-7.41h0c7.41-22.22,14.82-37,22.22-59.26,0-7.41,7.41-7.41,7.41-7.41l7.41-7.41c7.41,0,7.41-7.41,14.82-7.41-14.82-14.81-37-29.63-51.86-44.44s-22.22-37-37-51.86c7.41-14.82,0-37,0-51.86s7.41-29.63,7.41-51.85q22.22-55.56,66.67-66.68c37-14.81,74.08-14.81,125.94-7.4,29.63,7.4,66.67,14.81,96.3,29.63l88.9,44.45c22.22,14.81,44.45,29.63,74.08,44.45a225.37,225.37,0,0,1,59.26,59.26c7.41,7.41,14.82,22.22,22.23,29.63s14.81,22.23,14.81,29.63c7.41,29.64,14.82,51.86,7.41,74.08s-14.82,37-29.63,59.27c-22.23,29.63-51.86,37-88.9,44.45-29.63,0-66.67,0-103.71-14.82,7.41,7.41,7.41,14.82,7.41,14.82v14.81c0,7.41-7.41,14.82-14.82,29.63s-14.81,29.64-29.63,44.45c14.82,7.41,14.82,14.82,29.63,22.23,7.41,7.4,14.82,14.81,29.63,22.22C3198,755.62,3205.39,763,3212.8,763Zm37-259.28c7.4,0,7.4-7.4,7.4-14.81,7.41-22.23,14.82-44.45,0-59.27-7.4-22.22-29.63-37-59.26-59.26-14.82-7.41-37-22.23-59.26-37s-44.45-29.63-74.08-37c-22.23-7.41-44.45-14.82-66.68-14.82s-37,7.41-44.44,22.23c-7.41,7.41-7.41,22.22-14.82,29.63V363c7.41,7.41,14.82,22.23,22.22,29.63s29.64,22.23,44.45,29.64,37,22.22,59.27,37,37,22.22,59.26,29.63c7.41,7.41,22.22,7.41,29.63,14.81,7.41,0,22.23,7.41,29.63,7.41h29.64C3235,518.56,3242.43,511.15,3249.84,503.74ZM3072,555.6l-44.44-22.23-44.45-22.22V526c0,7.4-7.41,14.81-14.82,29.63s-14.81,29.63-22.22,44.45c29.63,14.81,44.45,22.22,81.49,44.44,7.4,0,7.4,7.41,14.81,7.41v-7.41h0c14.82-22.22,22.23-29.63,29.63-51.85,0,0,0-7.41,7.41-7.41,0,0,7.41,0,7.41-7.41l7.41-7.41c-7.41,0-7.41-7.4-14.82-7.4C3086.86,563,3079.45,555.6,3072,555.6Z"/>
            <path class="cls-4"
                  d="M3612.83,570.42c7.41,0,14.81,0,29.63,7.4,7.41,7.41,14.82,7.41,22.22,14.82s14.82,7.41,14.82,14.81l14.82,14.82c7.4,14.82,14.81,22.23,7.4,37,0,14.82-7.4,22.23-14.81,29.63s-14.82,14.82-22.23,29.64l-22.22,22.22L3501.71,881.55l-22.23,22.23c-7.4,7.4-7.4,7.4-22.22,7.4-7.41,0-14.82,0-29.63-7.4-7.41-7.41-22.23-14.82-29.63-22.23s-14.82-14.81-22.23-29.63c-7.41-7.41-7.41-22.22-7.41-29.63s0-7.41,7.41-14.82c0-7.41,7.41-7.41,7.41-14.81,7.41-7.41,7.41-14.82,14.82-22.23s14.81-14.81,14.81-22.22c59.27-66.67,88.9-103.71,148.16-170.39,0-7.41,7.41-7.41,14.82-14.81C3598,570.42,3605.42,570.42,3612.83,570.42ZM3398,963v14.82c0,7.4-7.41,7.4-7.41,14.81s-7.41,7.41-14.82,7.41-7.41,7.41-14.81,7.41-14.82,0-22.23-7.41c-7.41,0-14.81-7.41-22.22-14.82l-14.82-14.81c-7.41-7.41-7.41-14.82-7.41-22.23V926c0-7.41,7.41-14.82,14.82-22.23L3323.92,889h22.22c7.41,0,14.82,7.41,22.22,14.81L3390.59,926C3390.59,948.22,3390.59,955.63,3398,963Z"/>
            <path class="cls-4"
                  d="M1071.88,4244.79h0l14.82,14.82c14.81,7.4,29.63,22.22,44.44,29.63s29.64,22.22,44.45,29.63c0,0,7.41,7.41,14.82,7.41s7.41,7.41,14.81,7.41,7.41,7.4,7.41,7.4l7.41,7.41c0,7.41,0,14.82-14.82,22.23-7.4,0-14.81,7.4-22.22,7.4-14.82,0-29.63,7.41-44.45,7.41s-29.63,0-37,7.41c-14.81,0-22.22,0-37,7.41-7.41,0-14.81,7.41-22.22,7.41-7.41,7.4-7.41,14.81-7.41,22.22v111.12c0,14.82-7.41,22.22-7.41,29.63-7.41,7.41-14.81,7.41-22.22,7.41s-14.82-7.41-14.82-7.41c-7.41,0-7.41-7.41-14.81-14.81l-14.82-14.82c0-7.41-7.41-7.41-7.41-14.82,0,0-7.41-7.4-7.41-14.81s-7.4-7.41-7.4-14.82c-7.41-7.41-7.41-7.41-7.41-14.81s-7.41-7.41-7.41-14.82c-7.41-14.82-14.82-22.22-22.22-29.63s-14.82-14.82-29.64-22.23c0,0-7.4-7.41-14.81-7.41H790.38c-14.82,0-22.23,0-37-7.4-14.82,0-29.64-7.41-44.45-7.41s-22.23-7.41-37-14.82c-7.41-7.41-14.82-7.41-22.23-14.81,0-7.41,0-14.82,7.41-22.23s22.23-14.81,29.63-22.22c14.82-7.41,22.23-14.82,37-22.23,7.41-7.4,14.82-7.4,22.23-14.81s14.81-14.82,14.81-22.23c7.41-7.4,7.41-14.81,7.41-22.22s0-14.82-7.41-29.63c0-7.41-7.4-14.82-7.4-29.63,0-7.41-7.41-14.82-7.41-29.64,0-7.4,0-14.81-7.41-14.81,0-7.41,0-14.82-7.41-14.82s0-14.81,0-14.81v-14.82c0-7.41,7.41-14.82,14.82-7.41,7.41,0,14.81,0,29.63,7.41,7.41,7.41,22.22,7.41,37,14.82s22.22,14.81,37,22.22,22.22,14.82,29.63,22.22,14.82,7.41,22.23,14.82c7.4,0,14.81,7.41,22.22,7.41s14.82,0,14.82-7.41c7.4,0,7.4-7.41,14.81-7.41,7.41-7.41,7.41-7.41,14.82-7.41,7.41-7.4,14.81-7.4,22.22-14.81s14.82-7.41,22.23-14.82,14.81-7.41,22.22-14.81,14.82-7.41,29.63-7.41h14.82c7.41,0,7.41,7.41,7.41,14.81v44.45c0,14.82,0,22.23-7.41,37s0,22.23,0,37v22.23C1064.47,4230,1064.47,4237.38,1071.88,4244.79Z"/>
            <path class="cls-4"
                  d="M1634.89,4444.81h0c7.41,7.4,14.82,7.4,14.82,7.4,14.81,7.41,37,14.82,51.85,14.82,14.82,7.41,37,14.82,51.86,14.82,0,0,7.41,0,14.81,7.4,7.41,0,7.41,0,14.82,7.41,7.41,0,7.41,7.41,14.82,7.41l7.4,7.41c0,7.41,0,14.81-7.4,22.22-14.82,7.41-22.23,14.82-29.64,14.82-14.81,7.41-22.22,14.81-37,14.81-14.81,7.41-22.22,7.41-37,14.82s-22.22,7.41-29.63,14.82-14.81,7.4-14.81,14.81-7.41,14.82,0,22.23c0,7.4,0,22.22,7.4,37,0,14.81,7.41,29.63,7.41,37,0,14.81,7.41,22.22,7.41,37v29.63c0,7.41-7.41,14.81-14.82,14.81H1642.3c-7.41,0-14.82-7.4-14.82-7.4-7.41,0-7.41-7.41-14.81-14.82s-7.41-7.41-14.82-7.41-7.41-7.41-14.82-7.41l-14.81-14.81-14.82-14.82c-7.41-7.41-7.41-7.41-14.82-7.41-7.4-7.4-22.22-14.81-29.63-22.22s-22.22-14.82-37-14.82h-81.49c-14.81,0-22.22,0-37,7.41H1271.9c-7.41,0-14.82-7.41-22.23-7.41q-11.12-11.1,0-22.22c7.41-7.41,14.82-22.22,22.23-29.63s22.22-22.23,29.63-29.63,14.81-14.82,14.81-22.23c7.41-7.41,7.41-14.81,7.41-22.22v-22.23c0-7.4-7.41-14.81-7.41-22.22-7.4-7.41-7.4-14.82-14.81-22.22s-7.41-14.82-14.82-22.23c0-7.41-7.41-7.41-7.41-14.81s-7.4-7.41-7.4-14.82-7.41-7.41-7.41-14.82v-14.81c0-7.41,7.41-14.82,14.81-14.82h29.64c7.4,0,22.22,7.41,37,7.41,14.81,7.41,22.22,7.41,37,14.82s22.22,7.4,29.63,14.81c7.41,0,14.81,7.41,22.22,7.41h22.23c7.4,0,7.4-7.41,14.81-7.41l14.82-14.81,14.81-14.82,22.23-22.22c7.41-7.41,14.81-14.82,14.81-22.23l22.23-22.22c7.41-7.41,14.81-7.41,22.22-14.82,7.41,0,14.82-7.41,14.82,0,7.41,0,7.41,7.41,7.41,14.82s7.4,14.81,7.4,22.22v22.23c0,14.81,0,22.22,7.41,37,0,14.81,7.41,22.22,7.41,37,0,7.4,0,14.81,7.41,22.22C1627.48,4437.4,1627.48,4437.4,1634.89,4444.81Z"/>
            <path class="cls-4"
                  d="M2220.12,4496.66h14.82c14.81,0,37,0,51.85,7.41,14.82,0,37,0,51.86,7.41h29.63c7.41,0,7.41,0,14.82,7.41,7.41,0,7.41,7.4,7.41,7.4q11.1,11.11,0,22.23l-14.82,14.81c-7.41,7.41-22.22,14.82-29.63,22.23-14.82,7.41-22.23,14.81-29.63,22.22s-22.23,14.82-29.64,22.23L2272,4644.82v22.23c0,7.4,7.41,22.22,14.81,29.63,14.82,22.22,14.82,37,22.23,44.45,7.41,14.81,14.81,22.22,14.81,37,7.41,7.4,7.41,22.22,7.41,29.63s-7.41,14.81-14.81,14.81h-14.82c-7.41,0-14.82,0-14.82-7.4-7.4,0-14.81-7.41-14.81-7.41-7.41,0-7.41-7.41-14.82-7.41s-7.41,0-14.81-7.41c-7.41,0-7.41-7.41-14.82-7.41s-14.82-7.4-14.82-7.4-7.4-7.41-14.81-7.41c-22.23-7.41-29.63-7.41-44.45-14.82-7.41-7.41-22.22-7.41-37-7.41h-14.82c-7.4,0-7.4,0-14.81,7.41l-7.41,7.41c-7.41,0-7.41,7.41-14.82,7.41s-14.81,7.41-22.22,7.41c-7.41,7.4-22.22,7.4-37,14.81s-22.22,7.41-37,14.82-22.22,7.41-37,7.41c-7.41,0-22.22,0-22.22-7.41-7.41,0-7.41-7.41-7.41-22.23s7.41-22.22,14.81-37,14.82-22.22,22.23-37c7.41-7.4,7.41-14.81,7.41-29.63,0-7.41,7.4-22.22,0-29.63,0-7.41,0-14.82-7.41-22.22s-7.41-7.41-7.41-14.82L1909,4593c-7.41-7.41-14.82-14.82-14.82-22.23s-7.41-7.41-14.82-14.81l-14.81-14.82s-7.41,0-7.41-7.41-7.41-7.41-7.41-14.81,0-14.82,7.41-14.82c7.41-7.41,14.82-7.41,29.63-7.41h133.35c7.4,0,14.81,0,14.81-7.41,7.41,0,7.41-7.4,14.82-14.81,0-7.41,7.41-7.41,7.41-14.82s7.4-14.82,7.4-14.82c7.41,0,14.82-14.81,14.82-22.22,7.41-7.41,7.41-14.81,14.82-22.22s7.4-14.82,14.81-22.23,7.41-14.81,14.82-22.22,7.41-7.41,14.81-7.41,7.41,7.41,14.82,7.41c0,7.41,7.41,7.41,7.41,14.82s7.41,14.81,7.41,22.22c7.4,7.41,7.4,22.22,14.81,29.63s7.41,22.23,14.82,29.63c0,7.41,7.41,14.82,7.41,22.23C2212.71,4489.25,2212.71,4489.25,2220.12,4496.66Z"/>
            <path class="cls-4"
                  d="M2590.52,4452.21c7.41,0,14.82,0,22.23-7.4,7.4,0,7.4,0,7.4-7.41l7.41-7.41s0-7.41,7.41-14.82c7.41-22.22,14.82-37,22.22-59.26s14.82-44.45,22.23-74.08c0-7.41,7.41-7.41,7.41-7.41,7.4,0,7.4-7.41,14.81-7.41h22.23l22.22,22.23,22.22,22.22,22.23,22.22,22.22,22.23c7.41,7.41,14.82,7.41,14.82,7.41h22.22c14.82,0,22.23,0,29.64-7.41,7.4,0,14.81,0,22.22-7.41,7.41,0,14.82,0,22.22-7.41,7.41,0,14.82,0,29.64-7.41h29.63c7.41,0,14.81,7.41,22.22,7.41,7.41,7.41,7.41,14.82,7.41,22.23s0,14.81-7.41,29.63-22.22,37-37,51.85-22.22,29.64-29.63,37-7.41,14.82-7.41,14.82c0,7.41,7.41,7.41,7.41,14.82,29.63,37,37,59.26,66.67,103.71,7.41,14.82,7.41,22.22,0,37-7.41,7.41-22.22,14.82-44.45,14.82h-44.44c-14.82,0-29.64-7.41-44.45-7.41s-29.64-7.41-44.45-7.41-22.23-7.41-37-7.41h-22.23s-7.4,0-14.81,7.41c-29.63,22.22-51.86,44.45-74.08,59.26s-44.45,37-74.08,44.45h-29.63c-7.41,0-7.41-7.41-7.41-7.41v-14.81c0-22.23,7.41-44.45,7.41-66.67v-81.49c0-7.41-7.41-7.41-14.82-14.82s-14.82-7.41-22.22-14.82-14.82-7.4-29.64-14.81c-7.4-7.41-22.22-14.82-29.63-14.82-7.41-7.41-22.22-14.81-29.63-22.22,7.41,22.22,0,14.82,0,7.41v-14.82c0-7.41,7.41-7.41,14.82-14.81s14.81-7.41,22.22-7.41,14.82,0,22.22-7.41h29.64c7.4,0,22.22-7.41,29.63-7.41S2583.11,4459.62,2590.52,4452.21ZM2664.6,4467c0,7.41-7.41,7.41-7.41,14.82s-14.81,7.4-22.22,7.4c-22.22,7.41-44.45,7.41-59.26,7.41-22.23,0-37,7.41-59.27,7.41,0,7.41,7.41,7.41,14.82,14.82s14.81,7.4,29.63,14.81c7.41,7.41,22.22,14.82,29.63,14.82,7.41,7.41,14.82,7.41,22.23,14.81l14.81,14.82,7.41,7.41v74.08c0,14.81,0,37-7.41,66.67,44.45-37,66.67-59.26,111.12-96.3,7.41-7.41,7.41-7.41,14.82-7.41s7.41-7.41,14.81-7.41H2798c7.4,0,22.22,7.41,37,7.41s22.22,7.41,37,7.41,29.63,7.4,44.44,7.4,29.64,7.41,44.45,7.41c-14.81-14.81-22.22-37-37-51.85s-22.22-37-37-51.86c-7.41-7.41-7.41-14.82-7.41-22.22s0-14.82,7.41-22.23c7.41-14.81,22.23-29.63,29.63-44.45,14.82-14.81,22.23-29.63,29.64-44.44,7.4-7.41,7.4-7.41,0-14.82h-14.82c-14.82,0-29.63,7.41-51.86,14.82s-37,7.4-51.85,14.81H2798l-7.41-7.41c-7.41-7.4-22.23-22.22-37-37s-29.63-29.63-44.45-51.85C2694.23,4393,2686.83,4415.17,2664.6,4467Z"/>
            <path class="cls-4"
                  d="M3160.94,4267c7.41,0,14.82-7.41,14.82-7.41,7.4,0,7.4-7.4,7.4-7.4l7.41-7.41V4230c0-22.22,7.41-44.45,7.41-66.67s0-51.86,7.41-74.08c0-7.41,0-7.41,7.41-14.82l7.4-7.4h22.23c14.81,7.4,22.22,7.4,29.63,14.81s14.82,7.41,29.63,14.82c7.41,7.41,14.82,7.41,29.63,14.81,7.41,7.41,14.82,7.41,29.64,14.82,7.4,0,14.81,7.41,14.81,7.41,7.41,0,14.82,0,22.23-7.41,14.81-7.41,22.22-7.41,29.63-14.82s14.81-7.4,22.22-14.81,14.82-7.41,22.23-14.82,14.81-7.41,29.63-14.81c7.41-7.41,14.81-7.41,29.63-7.41,7.41,0,14.82,0,22.22,7.41,7.41,0,7.41,7.4,14.82,14.81v29.63c-7.41,22.23-14.82,37-22.22,59.27s-14.82,37-22.23,44.45V4230l14.82,14.82c37,29.63,51.85,51.86,88.89,81.49,14.82,7.41,14.82,22.22,14.82,37-7.41,14.81-14.82,22.22-44.45,29.63-14.81,7.41-29.63,7.41-44.45,7.41s-29.63,7.41-51.85,7.41H3398l-14.82,14.81c-22.22,29.63-37,51.86-59.26,81.49q-22.23,33.33-66.68,66.67c-7.4,0-7.4,7.41-14.81,7.41h-14.82c-7.41,0-7.41,0-14.81-7.41l-7.41-7.41c0-22.22-7.41-44.44-7.41-66.67-7.41-22.22-7.41-44.45-14.82-66.67,0-7.41,0-14.82-7.4-14.82,0,0-7.41-7.4-14.82-7.4s-14.82-7.41-22.22-7.41-22.23-7.41-29.64-7.41-22.22-7.41-29.63-7.41c-14.81-7.41-22.22-7.41-29.63-14.81s-14.82-7.41-14.82-14.82-7.4-7.41,0-14.82c0-7.41,0-7.41,7.41-14.81l14.82-14.82c7.41,0,14.81-7.41,22.22-14.82s14.82-7.4,29.63-14.81c7.41-7.41,14.82-7.41,29.64-14.82C3138.72,4274.42,3153.53,4267,3160.94,4267Zm74.08-7.4c0,7.4,0,14.81-7.41,14.81,0,7.41-7.41,7.41-22.22,14.82-22.23,7.41-37,14.81-59.27,22.22-14.81,7.41-37,14.82-59.26,22.23,7.41,0,14.82,7.4,22.22,7.4s22.23,7.41,29.64,7.41,22.22,7.41,29.63,7.41,22.22,7.41,29.63,7.41,14.82,7.41,14.82,7.41c7.4,0,7.4,7.4,7.4,7.4s0,7.41,7.41,7.41v14.82c7.41,14.81,7.41,29.63,14.82,44.45,0,14.81,7.41,37,7.41,66.67,37-51.86,51.85-74.08,88.89-125.94,7.41-7.41,7.41-7.41,7.41-14.81l7.41-7.41s7.41-7.41,14.81-7.41h140.76c14.81,0,29.63-7.41,44.44-7.41-14.81-14.81-29.63-29.63-51.85-44.45-14.82-14.81-29.63-29.63-44.45-37-7.41-7.4-14.82-14.81-14.82-22.22v-22.22c7.41-14.82,14.82-37,22.23-51.86s14.81-37,22.22-51.86V4104h-14.81l-44.45,22.22c-14.82,7.41-37,22.22-51.86,29.63-7.41,0-7.41,7.41-14.81,7.41h-14.82s-7.41,0-7.41-7.41l-44.45-22.22c-14.81-7.41-37-22.23-59.26-37C3242.43,4178.12,3242.43,4200.34,3235,4259.61Z"/>
            <path class="cls-2" d="M464.42,3718.82c-903.77-1014.9-133.34-2370.56-133.34-2370.56"/>
            <path class="cls-2" d="M3857.29,1200.1s1007.49,1333.44,0,2563.17"/>
        </g>
    </g>
</svg>