<svg xmlns="http://www.w3.org/2000/svg" viewBox="0 0 4285.12 4743.31">
    <defs>
        <style>
            .cls-1{fill:#fff;}.cls-1,.cls-2,.cls-4{stroke:#fe8045;stroke-linecap:round;stroke-width:50px;}.cls-1,.cls-4{stroke-linejoin:round;}.cls-2,.cls-4{fill:none;}.cls-2{stroke-miterlimit:10;}.cls-3{fill:#fe8045;}
        </style>
    </defs>
    <g id="레이어_2" data-name="레이어 2">
        <g id="레이어_1-2" data-name="레이어 1">
            <path class="cls-1"
                  d="M2840.43,3112.8C2944.19,3046.09,2922,1801,2922,1801c-7.41-103.76-88.94-229.76-133.4-289-14.83-22.23-51.88-29.64-74.12-7.41-66.7,59.29-133.4,185.28-163,237.16-7.41,14.83-22.23,22.24-44.47,29.65L1788,1808.39c-14.82,0-37-7.41-44.46-22.24-88.94-126-185.29-177.87-229.76-200.1-22.23-7.42-44.47-7.42-59.29,14.82-74.11,148.23-74.11,266.81-66.7,311.28,0,7.41,0,22.23-7.41,29.64-103.76,229.76-126,1171-126,1171S1980.7,3631.6,2840.43,3112.8Z"/>
            <line class="cls-2" x1="1862.12" y1="2112.26" x2="1847.3" y2="2216.02"/>
            <line class="cls-2" x1="2299.39" y1="2141.9" x2="2277.16" y2="2230.84"/>
            <path class="cls-3"
                  d="M957.93,785.61h0c7.41,0,7.41-7.41,0,0,14.82-7.41,14.82-7.41,22.23-14.82h22.23c7.42,0,14.83,7.41,22.24,14.82,0,7.41,7.41,7.41,7.41,14.82v14.83c0,7.41,0,7.41-7.41,14.82,0,7.41-7.41,7.41-7.41,7.41l-7.41,7.41h-7.42c-103.76,74.12-155.63,118.59-252,222.35l-7.41,7.41-7.42,7.41-22.23,22.23c-7.41,7.41-14.82,7.41-22.24,14.82-14.82,0-22.23,0-29.64-7.41s-7.41-7.41-7.41-14.82v-22.23c0-7.41,7.41-14.83,14.82-22.24s14.82-14.82,14.82-22.23h0l88.94-88.94C757.82,919,743,911.6,728.17,889.37L720.76,882V852.31c0-7.41,7.41-14.82,7.41-22.23L743,815.26h22.24c7.41,0,14.82,7.41,14.82,7.41,22.24,22.23,29.65,37.06,44.47,59.29,7.41-7.41,14.82-14.82,22.23-14.82,7.42-7.41,14.83-7.41,22.24-14.83s14.82-7.41,22.23-14.82,14.83-7.41,22.24-14.82,14.82-7.41,14.82-14.82C950.51,793,950.51,785.61,957.93,785.61ZM691.11,511.39c7.42-7.41,14.83-7.41,22.24-14.82s14.82-7.41,22.23-7.41h22.24c7.41,0,14.82,7.41,14.82,7.41,7.41,7.41,7.41,14.82,7.41,22.23s0,14.82-7.41,22.24-7.41,14.82-14.82,14.82c-7.41,7.41-14.83,7.41-22.24,14.82-14.82,7.41-22.23,14.82-37.05,29.65-7.42,7.41-22.24,22.23-37.06,29.64l14.82,14.82,7.41,7.42c0,7.41,7.41,7.41,7.41,7.41,7.42,0,7.42,7.41,14.83,7.41h14.82c22.23,0,37.06,0,59.29,7.41,22.24,0,44.47,0,59.29,7.41h14.82c7.42,0,14.83,0,14.83,7.41,7.41,0,7.41,7.41,14.82,7.41,7.41,7.42,7.41,7.42,7.41,14.83v22.23c0,7.41-7.41,14.82-14.82,14.82C869,756,861.58,756,854.16,756s-14.82,0-22.23,7.41H683.7v7.41c0,7.41,0,14.82-7.41,22.23,0,7.41,0,14.82-7.41,22.24,0,7.41,0,14.82-7.41,22.23v14.82c0,7.42,0,14.83-7.41,22.24s-7.42,14.82-7.42,22.23-7.41,14.83-7.41,22.24-7.41,14.82-7.41,22.23-7.41,14.82-7.41,14.82L609.59,970.9H587.35c-7.41,0-14.82-7.41-22.23-7.41-7.41-7.42-7.41-14.83-7.41-22.24V896.78c0-22.23,7.41-44.47,14.82-74.11,7.41-22.24,7.41-44.47,7.41-66.7V733.73c0-7.41-7.41-7.41-7.41-14.82-7.41-7.41-7.41-14.82-14.82-22.24-29.65,29.65-44.47,44.47-81.53,74.12L454,793c-7.41,7.41-14.82,7.41-22.24,7.41s-14.82,0-22.23-7.41c0,0-7.41-7.41-7.41-14.82V763.38c0-7.41,0-14.83,7.41-22.24,0-7.41,7.41-14.82,14.82-22.23h0l7.41-7.41,14.83-14.83L476.18,667C572.53,607.74,609.59,570.68,691.11,511.39Z"/>
            <path class="cls-3"
                  d="M1291.44,400.22c7.41,0,14.82-7.41,22.23-7.41s14.83-7.41,22.24-7.41,14.82,0,22.23,7.41c7.41,0,14.83,7.41,14.83,22.23v29.65c-7.42,7.41-7.42,14.82-22.24,14.82-7.41,7.41-14.82,7.41-22.23,7.41h0s-7.42,0-14.83,7.41c-7.41,0-14.82,7.41-29.64,14.82s-29.65,14.83-51.88,22.24-51.88,22.23-88.94,44.47-81.52,44.47-126,74.11h-7.41s-7.42,0-7.42,7.41c-7.41,0-7.41,0-14.82,7.41H972.75c-7.41,0-14.82-7.41-14.82-14.82-7.41-7.41-7.41-14.82-7.41-22.23s7.41-14.83,7.41-22.24,7.41-14.82,14.82-14.82h0c7.41-7.41,7.41-7.41,14.82-7.41s14.82-7.41,14.82-7.41c22.24-14.83,37.06-22.24,59.3-37.06,22.23-7.41,44.46-22.23,66.7-37.06s51.88-22.23,74.11-37.05C1239.56,422.45,1261.79,407.63,1291.44,400.22ZM943.1,444.69c-7.41,0-14.82,7.41-22.23,7.41H898.63c-7.41,0-14.82,0-14.82-7.41-7.41,0-7.41-7.42-7.41-14.83-7.41-14.82,0-29.64,7.41-44.46,7.41-7.42,14.82-22.24,22.24-29.65s22.23-14.82,29.64-22.23l7.41-7.42,7.41-7.41,7.41-7.41,7.42-7.41L995,289.05l44.47-22.24,44.47-22.23c14.82-7.41,22.23-7.41,29.64-14.82,7.42,0,14.83-7.42,22.24-7.42s14.82-7.41,22.23-7.41c7.41-7.41,22.24-7.41,29.65-14.82,7.41,0,22.23-7.41,29.64-7.41s14.83,0,22.24,7.41,7.41,14.82,14.82,22.23,7.41,14.83,14.82,22.24c0,7.41,7.42,14.82,7.42,22.23s7.41,14.83,7.41,22.24,7.41,14.82,7.41,22.23,0,14.83,7.41,22.24c0,7.41,0,14.82-7.41,22.23s-14.82,7.41-22.24,14.82-14.82,7.42-22.23,0c-7.41,0-7.41-7.41-14.82-14.82,0-7.41-7.41-14.82-7.41-22.23s-7.42-14.83-7.42-14.83c0-7.41-7.41-14.82-7.41-14.82h-14.82c-7.41,0-7.41,0-14.82,7.41-7.41,0-7.41,7.41-14.82,7.41s-7.42,7.42-14.83,7.42c-59.29,29.64-96.35,44.46-155.64,81.52,0,0-7.41,0-7.41,7.41l-7.41,7.41C957.93,437.27,950.51,437.27,943.1,444.69Zm170.46,363.16h0c-7.41,0-14.82-7.42-14.82-7.42-7.41-7.41-7.41-7.41-7.41-14.82-7.41-7.41-7.41-14.82-14.82-22.23s-7.41-14.83-14.82-22.24-7.42-14.82-14.83-29.64L1032,681.85V667c0-7.41,0-7.41,7.41-14.82L1061.69,630c96.35-59.29,148.22-81.52,244.57-126,7.41,0,14.83-7.41,22.24-7.41h22.23c7.41,0,14.83,0,22.24,7.41s7.41,14.82,14.82,22.23c0,7.41,7.41,14.82,7.41,22.24s7.41,14.82,7.41,29.64c0,7.41,7.41,22.24,7.41,29.65s7.41,14.82,7.41,22.23V644.8c0,7.41,0,7.41-7.41,7.41l-7.41,7.41c-7.41,0-7.41,7.41-14.82,7.41-103.76,44.47-155.64,66.7-252,126-7.41,0-7.41,7.41-14.82,7.41C1128.39,807.85,1121,807.85,1113.56,807.85Zm14.83-96.35h0l7.41,7.41h14.82l7.41-7.41c59.29-37.06,88.94-51.88,148.23-81.53,7.41,0,7.41,0,14.82-7.41,7.42,0,7.42,0,14.83-7.41,7.41,0,7.41-7.41,14.82-7.41l7.41-7.41v-7.41s0-7.42-7.41-14.83c0-7.41-7.41-7.41-7.41-7.41H1328.5c-7.42,0-7.42,0-14.83,7.41-51.88,22.24-81.52,37.06-133.4,66.71-7.41,0-14.83,7.41-22.24,14.82s-14.82,7.41-22.23,14.82c0,0-7.41,0-7.41,7.41v14.83c-7.41,7.41-7.41,14.82,0,14.82Z"/>
            <path class="cls-3"
                  d="M1595.31,355.75s-7.41,0-22.24,7.41c-7.41,0-22.23,7.41-29.64,7.41-14.83,0-22.24,7.41-29.65,7.41s-14.82,7.41-22.23,7.41h0c-7.41,0-14.83,7.42-22.24,7.42s-14.82,0-22.23,7.41h-22.24c-7.41,0-14.82,0-14.82-7.41L1395.2,378c-7.41-7.41-7.41-14.82-7.41-22.23s-7.41-14.82-7.41-22.24V326.1c0-7.41,0-7.41-7.42-14.82,0-7.41,0-7.41-7.41-14.82s0-14.82-7.41-22.24c0-7.41-7.41-14.82-7.41-22.23s-7.41-14.82-7.41-22.24-7.41-14.82-7.41-22.23V170.46c0-7.41,7.41-14.82,7.41-14.82,0-7.41,7.41-7.41,14.82-14.82,0,0,7.41,0,7.41-7.41,7.41,0,7.41,0,14.83-7.41,7.41,0,7.41-7.42,14.82-7.42,59.29-22.23,88.93-29.64,155.64-44.46,7.41,0,22.23-7.42,29.64-7.42,14.83,0,22.24,0,29.65,7.42,7.41,0,14.82,7.41,14.82,14.82,7.41,7.41,7.41,14.82,7.41,14.82,0,7.41,0,14.82,7.41,22.24v44.46c0,7.42,0,14.83,7.42,22.24,0,14.82,7.41,22.23,7.41,37.06v74.11c0,7.41,0,7.41-7.41,14.82,0,7.41-7.42,7.41-7.42,14.82-7.41,7.42-22.23,14.83-29.64,14.83C1610.13,355.75,1602.72,355.75,1595.31,355.75Zm-7.41,252c-14.83,7.41-29.65,7.41-37.06,0L1528.6,585.5c-7.41-37-14.82-51.88-22.23-88.93,0-7.41-7.41-14.83-7.41-29.65V444.69c7.41-7.42,7.41-14.83,22.23-14.83H1536c7.41,0,7.41,0,14.82,7.41,7.41,0,7.41,7.42,7.41,7.42,0,7.41,7.41,7.41,7.41,14.82s0,7.41,7.41,14.82v14.82c0,7.42,0,14.83,7.41,22.24s7.41,14.82,7.41,22.23V541h7.42c7.41,0,14.82,0,29.64-7.41,14.82,0,22.24-7.41,22.24-7.41h7.41c74.11-14.82,111.17-22.23,185.28-29.64,7.41,0,7.41,0,14.83,7.41l7.41,7.41,7.41,7.41v37.06l-14.82,14.82h-7.42C1736.12,570.68,1684.24,578.09,1587.9,607.74Zm-118.59-415h-7.41s-7.41,0-7.41,7.41c-7.41,0-7.41,7.41-14.82,14.82v14.83c0,7.41,7.41,14.82,7.41,29.64v22.23c0,7.42,0,7.42,7.41,14.83,0,0,0,7.41,7.41,7.41l7.41,7.41c7.41,0,7.41,7.41,14.83,0,7.41,0,14.82,0,22.23-7.41h0c7.41,0,22.23-7.41,29.65-7.41s14.82-7.41,29.64-7.41h14.82s7.42,0,7.42-7.42V237.17c0-7.41,0-14.83-7.42-22.24,0-7.41,0-14.82-7.41-22.23V177.87c-7.41-7.41-7.41-7.41-14.82-7.41h-14.82C1513.78,177.88,1499,185.29,1469.31,192.7Zm355.75,51.88c0,29.64,7.41,37.06,7.41,66.7v29.65c0,7.41-7.41,7.41-7.41,14.82-7.41,7.41-14.82,7.41-22.23,7.41H1788c-7.41,0-7.41-7.41-7.41-7.41l-7.41-7.41s0-7.41-7.41-14.82c-14.82-88.94-22.23-133.41-29.65-222.35v-37c0-7.42,14.83-14.83,29.65-22.24H1788c7.42,0,14.83,0,14.83,7.41l7.41,7.41s0,7.41,7.41,7.41c0,7.42,0,7.42,7.41,14.83v14.82c0,29.65,7.41,44.47,7.41,66.7h44.47c7.41,0,14.82,0,22.23,7.41,0,0,7.42,7.42,7.42,14.83v29.64c-7.42,7.41-14.83,14.82-22.24,14.82s-22.23,7.42-29.64,7.42C1825.06,237.17,1825.06,237.17,1825.06,244.58Z"/>
            <path class="cls-3"
                  d="M2373.51,222.34c0,22.24-7.42,37.06-22.24,51.88s-22.23,29.65-44.47,37.06c-14.82,7.41-22.23,14.82-37.05,14.82s-22.24,7.41-37.06,7.41-22.24,0-37.06-7.41c-14.82,0-22.23-7.41-37.06-14.82-7.41-7.41-22.23-14.82-29.64-22.23s-14.82-14.83-22.24-29.65c-7.41-7.41-14.82-22.23-14.82-37.06-7.41-14.82-7.41-22.23-7.41-37.05s0-37.06,7.41-44.47c7.41-14.82,14.82-22.24,22.24-37.06h-14.83c-7.41,0-22.23-7.41-29.64-7.41-7.41-7.41-14.82-14.82-14.82-22.24s7.41-14.82,14.82-22.23,14.82-7.41,29.64-7.41c37.06,0,51.88,0,88.94,7.41V29.65c0-7.42,7.41-14.83,14.82-22.24S2217.87,0,2232.69,0s22.23,7.41,29.64,14.82,7.42,14.83,7.42,22.24V59.29c37.05,7.41,59.29,7.41,96.34,14.82,14.83,0,22.24,7.42,29.65,14.83s7.41,14.82,7.41,29.64c0,7.41-7.41,14.83-14.82,22.24s-14.82,7.41-29.65,7.41h-7.41c7.41,14.82,14.82,22.23,14.82,37.06C2373.51,192.7,2373.51,207.52,2373.51,222.34Zm-259.4,311.28h0c-7.41-7.41-7.41-7.41-7.41-14.82V429.86c0-7.41,0-22.23,7.41-29.64,0-7.41,0-14.82,7.41-14.82,0-7.42,7.41-7.42,14.82-7.42,14.82-7.41,22.23-7.41,37.06-7.41C2284.57,378,2343.86,385.4,2455,407.63c7.41,0,14.82,7.41,22.24,7.41s14.82,7.41,22.23,14.82,7.41,14.83,14.82,22.24v22.23c0,7.41,0,14.83-7.41,22.24,0,7.41-7.41,22.23-7.41,29.64s-7.41,22.24-7.41,29.65-7.41,14.82-7.41,22.23-7.41,7.41-7.41,14.83l-7.41,7.41h-29.65c-111.17-22.24-170.46-29.65-281.63-37.06h-14.83C2121.52,541,2114.11,541,2114.11,533.62Zm126-266.81c14.82,0,22.23-7.41,37.06-14.82,7.41-7.41,14.82-22.23,22.23-37.06V192.7c0-7.41-7.41-14.82-14.82-22.24s-14.82-7.41-22.24-14.82c-7.41,0-14.82-7.41-22.23-7.41h-22.23c-7.42,0-14.83,7.41-22.24,7.41-7.41,7.41-14.82,7.41-14.82,14.82-7.41,7.42-7.41,14.83-7.41,29.65s0,22.23,7.41,29.65,7.41,14.82,14.82,22.23,14.82,7.41,22.24,7.41C2217.87,266.81,2225.28,266.81,2240.1,266.81ZM2166,466.92h0v7.41h14.82c66.7,7.41,103.76,7.41,177.87,22.24,7.41,0,7.41,0,14.83,7.41h37V466.92c0-7.41-7.41-7.41-7.41-7.41h-14.82c-66.7-14.82-96.35-14.82-155.64-22.23h-51.88l-7.41,7.41v7.41c-7.41,0-7.41,0-7.41,14.82Zm355.74-133.4c0,7.41-7.41,7.41-7.41,14.82l-7.41,7.41s-7.41,7.41-14.82,7.41h-14.82c-7.41,0-14.83-7.41-14.83-14.82-7.41-7.41-7.41-7.41-7.41-14.82V289.05c0-7.42,0-14.83,7.41-22.24s0-14.82,7.42-22.23c0-14.83,7.41-37.06,7.41-51.88s7.41-37.06,7.41-51.88V118.58c0-7.41,0-7.41,7.41-14.82,0-7.41,7.41-14.82,14.82-14.82s7.41-7.41,14.82-7.41H2544q22.23,11.11,22.23,22.23V126c0,7.41,0,14.82-7.41,14.82C2544,214.93,2536.56,259.4,2521.73,333.52Z"/>
            <path class="cls-3"
                  d="M2618.08,607.74c-7.41,0-14.82-7.41-22.23-7.41,0,0-7.41,0-7.41-7.41,0,0-7.41,0-14.83-7.42,0,0-7.41,0-7.41-7.41,0,0-7.41,0-7.41-7.41L2544,555.86V526.21c0-14.82,0-29.64,7.41-44.46,0-7.42,7.41-14.83,7.41-22.24s0-14.82,7.41-22.23c7.41-22.24,7.41-29.65,14.83-51.88s7.41-29.65,14.82-51.88,7.41-29.65,14.82-51.88c0-7.41,7.41-22.24,7.41-29.65s7.41-14.82,7.41-22.23c7.41-14.83,7.41-29.65,14.83-44.47,0-7.41,0-14.82,7.41-14.82v-7.42c0-7.41,7.41-14.82,14.82-22.23S2677.37,126,2692.2,126H2707c7.41,0,7.41,0,14.82,7.41,7.41,0,7.41,7.41,14.82,14.82s7.41,14.82,7.41,14.82V192.7c0,7.41-7.41,14.82-7.41,22.23s0,7.41-7.41,14.83,0,7.41,0,7.41c-7.41,14.82-7.41,22.23-7.41,29.64-7.41,14.83-7.41,29.65-14.82,44.47-7.41,22.24-7.41,29.65-14.82,51.88s-7.42,29.65-14.83,44.47-7.41,22.23-14.82,44.47c0,7.41-7.41,14.82-7.41,22.23s0,7.41-7.41,14.83v22.23c0,7.41,7.41,7.41,7.41,7.41,14.82,7.41,22.23,7.41,37.06,14.82H2707c7.41,0,14.82,7.41,22.23,7.41s14.83,7.42,22.24,7.42l14.82,14.82v37.06c0,7.41-7.41,7.41-7.41,14.82-7.41,0-7.41,7.41-14.82,7.41h-14.83c-7.41,0-7.41,0-14.82-7.41-7.41,0-14.82-7.41-22.23-7.41s-14.83,0-22.24-7.41c-7.41,0-7.41,0-14.82-7.42Zm296.46,88.93c0,7.42-7.41,7.42-7.41,14.83s-7.41,7.41-7.41,14.82l-22.24,22.23h-22.23c-7.41,0-7.41-7.41-7.41-14.82V704.09c0-7.41,0-7.41,7.41-14.83,0-7.41,0-7.41,7.41-7.41v-7.41c29.65-59.29,44.47-88.94,66.7-148.23-14.82-7.41-22.23-14.82-44.47-22.23-29.64,59.29-37,88.94-66.7,155.64,0,7.41-7.41,22.23-14.82,29.64s-7.41,14.83-14.82,22.24-14.83,7.41-22.24,0l-7.41-7.41-7.41-7.41s-7.41-7.42-7.41-14.83V652.21c0-7.41,0-7.41,7.41-14.82,0-7.42,0-7.42,7.41-14.83,59.29-148.23,88.94-229.75,148.23-378,7.41-14.82,7.41-22.23,14.82-29.65s22.24-7.41,37.06,0,22.23,7.42,22.23,14.83V259.4c0,7.41-7.41,22.24-7.41,29.65s0,7.41-7.41,14.82c0,0,0,7.41-7.41,7.41-22.24,44.47-29.65,74.12-51.88,118.58l44.47,22.24c22.23-51.88,37.05-74.11,59.29-118.58,0-7.41,7.41-14.83,7.41-22.24s7.41-14.82,14.82-22.23L3048,274.23h29.64s7.41,0,7.41,7.41c7.41,7.41,7.41,7.41,7.41,14.82V326.1c0,7.42-7.41,14.83-7.41,29.65,0,7.41-7.41,14.82-7.41,22.23-7.41,7.42-7.41,14.83-14.82,22.24C3010.89,511.39,2981.24,578.09,2914.54,696.67Z"/>
            <path class="cls-3"
                  d="M3307.34,926.43h0c7.42,7.41,14.83,14.82,14.83,22.23s7.41,14.83,7.41,22.24,0,14.82-7.41,22.23c0,0-7.41,7.41-14.83,7.41s-7.41,7.41-14.82,7.41H3277.7c-7.41,0-7.41-7.41-14.82-7.41s-7.41-7.41-7.41-7.41-7.42,0-7.42-7.41c-96.34-88.94-148.22-126-252-200.11,0,0-7.42,0-7.42-7.41,0,0-7.41,0-7.41-7.41-7.41-7.41-14.82-7.41-22.23-14.82s-14.82-14.83-14.82-22.24V704.09c0-7.41,7.41-7.41,14.82-14.83s14.82-7.41,22.23-7.41,14.83,7.41,22.24,7.41c7.41,7.42,14.82,7.42,22.23,14.83h0c7.41,0,7.41,7.41,14.82,14.82s14.83,7.41,14.83,14.82v-7.41h0c14.82-22.23,22.23-29.64,29.64-51.88l7.41-7.41,7.42-7.41s7.41,0,14.82-7.41c-7.41-14.83-22.24-22.24-29.65-37.06s-14.82-29.65-14.82-51.88c0-14.82,0-29.65,7.41-44.47s7.41-29.64,22.24-44.47c14.82-29.64,37.05-51.88,66.7-59.29a180.7,180.7,0,0,1,88.94,0c22.23,7.41,44.46,14.82,66.7,29.65s37.06,29.64,59.29,44.47l44.47,44.46c14.82,14.83,29.64,29.65,37.05,51.88,7.42,7.42,7.42,14.83,7.42,22.24s7.41,14.82,7.41,29.64c0,22.24,0,44.47-7.41,66.71-7.42,14.82-22.24,37-37.06,51.88-22.24,22.23-51.88,37-74.12,37s-51.88,0-74.11-7.41v14.83c0,7.41,0,7.41-7.41,14.82s-7.41,14.82-22.23,22.23c-7.42,14.83-14.83,22.24-29.65,37.06,7.41,7.41,14.82,7.41,22.23,14.82s14.83,7.41,14.83,14.83C3299.93,919,3307.34,919,3307.34,926.43Zm74.12-222.34c7.41,0,7.41-7.42,7.41-14.83,14.82-14.82,14.82-37,14.82-51.88-7.41-14.82-14.82-37-29.64-51.88-7.41-7.41-22.24-22.23-37.06-29.64-14.82-14.82-29.65-22.24-44.47-29.65s-29.64-14.82-51.88-14.82-29.64,7.41-37,14.82-14.83,14.82-14.83,22.24-7.41,14.82-7.41,29.64c0,7.41,7.41,22.24,7.41,29.65,7.41,7.41,14.83,22.23,29.65,29.64s22.23,22.24,37.06,29.65,22.23,22.23,37.05,29.65c7.41,0,14.83,7.41,22.24,7.41s14.82,7.41,22.23,7.41h22.23C3366.64,711.5,3374.05,704.09,3381.46,704.09Zm-140.82,44.46c-7.41-7.41-14.82-14.82-29.64-22.23-7.41-7.41-22.24-14.82-29.65-22.23,0,7.41,0,14.82-7.41,14.82,0,7.41-7.41,14.82-14.82,29.64s-14.83,22.24-29.65,37.06c22.24,14.82,29.65,22.24,51.88,37.06,7.41,0,7.41,7.41,7.41,7.41v-7.41h0c14.82-22.24,22.24-29.65,37.06-44.47,0,0,0-7.41,7.41-7.41,0,0,7.41,0,7.41-7.41,0,0,7.41,0,7.41-7.41l-7.41-7.42Z"/>
            <path class="cls-3"
                  d="M3655.68,741.14h22.24c7.41,0,14.82,7.41,14.82,14.83,7.41,7.41,7.41,7.41,7.41,14.82s7.41,7.41,7.41,14.82c7.41,7.41,7.41,22.24,0,29.65,0,7.41-7.41,22.23-14.82,29.64s-14.82,14.83-22.24,22.24S3655.68,882,3648.27,882c-51.88,51.88-81.53,74.11-133.41,126L3500,1022.78c-7.41,7.41-14.82,7.41-22.23,14.82h-22.24c-7.41-7.41-14.82-7.41-22.23-14.82s-7.41-14.83-14.82-22.24V978.31s7.41-7.41,7.41-14.83,7.41-7.41,7.41-14.82l14.82-14.82L3463,919c59.3-59.29,88.94-88.94,148.23-155.64L3626,748.55C3640.86,748.55,3648.27,741.14,3655.68,741.14Zm-237.16,348.34h0c0,7.41-7.42,14.82-7.42,14.82,0,7.41-7.41,7.41-7.41,14.83s-7.41,7.41-14.82,7.41-7.41,7.41-14.82,7.41h-14.83c-7.41,0-7.41-7.41-14.82-7.41-7.41-7.41-7.41-7.41-7.41-14.83s-7.41-7.41-7.41-14.82v-14.82c0-7.41,7.41-14.82,14.82-14.82,7.41-7.42,7.41-7.42,14.83-14.83h14.82c7.41,0,7.41,7.41,14.82,7.41,7.41,7.42,7.41,14.83,14.82,14.83C3418.52,1074.66,3418.52,1082.07,3418.52,1089.48Z"/>
            <path class="cls-3"
                  d="M995,4157.81h0l14.82,14.82c14.83,7.41,29.65,22.23,44.47,29.65s29.65,22.23,44.47,29.64c0,0,7.41,7.41,14.82,7.41s7.42,7.41,14.83,7.41,7.41,7.42,7.41,7.42l7.41,7.41c0,7.41,0,14.82-14.82,22.23-7.41,0-14.83,7.41-22.24,7.41-14.82,0-29.64,7.41-44.47,7.41s-29.64,0-37,7.42c-14.83,0-22.24,0-29.65,7.41-7.41,0-14.82,7.41-22.23,7.41-7.41,7.41-7.41,7.41-7.41,22.23v111.17c0,7.42-7.42,22.24-7.42,29.65-7.41,7.41-7.41,7.41-22.23,7.41-7.41,0-14.82-7.41-14.82-7.41-7.41,0-7.41-7.41-14.83-14.82l-14.82-14.83c0-7.41-7.41-7.41-7.41-14.82,0,0-7.41-7.41-7.41-14.82s-7.41-7.41-7.41-14.82-7.41-7.42-7.41-14.83-7.41-7.41-7.41-14.82c-7.42-14.82-14.83-22.23-22.24-29.65s-14.82-14.82-29.64-22.23c0,0-7.42-7.41-14.83-7.41h-66.7c-14.82,0-22.23,0-37.06-7.41-14.82,0-29.64-7.41-44.47-7.41s-22.23-7.42-37.05-14.83c-7.41-7.41-14.83-7.41-22.24-14.82,0-7.41,0-14.82,7.41-22.23s22.24-14.83,29.65-22.24c14.82-7.41,22.23-14.82,37.06-22.23,7.41-7.41,14.82-7.41,22.23-14.83s14.82-14.82,14.82-22.23c7.42-7.41,7.42-14.82,7.42-22.23v-22.24c0-7.41-7.42-14.82-7.42-29.64,0-7.42-7.41-14.83-7.41-29.65,0-7.41,0-14.82-7.41-14.82,0-7.41,0-14.83-7.41-14.83v-29.64c0-7.41,7.41-14.82,14.82-7.41,7.41,0,14.83,0,29.65,7.41,7.41,7.41,22.23,7.41,29.64,14.82,14.83,7.41,22.24,14.82,37.06,22.24,7.41,7.41,22.24,14.82,29.65,22.23s14.82,7.41,22.23,14.82c7.41,0,14.82,7.41,22.24,7.41s14.82,0,14.82-7.41c7.41,0,7.41-7.41,14.82-7.41,7.41-7.41,7.41-7.41,14.82-7.41,7.42-7.41,14.83-7.41,22.24-14.82s14.82-7.41,22.23-14.83,14.83-7.41,22.24-14.82,14.82-7.41,22.23-7.41h14.82c7.42,0,7.42,7.41,7.42,14.82v44.47c0,7.41,0,22.24-7.42,37.06v59.29C1002.39,4180,987.57,4150.4,995,4157.81Z"/>
            <path class="cls-3"
                  d="M1335.91,4298.62c7.41,0,14.82,7.42,22.23,7.42h22.24l7.41-7.42c14.82-14.82,29.64-29.64,51.88-44.46s37-37.06,51.88-51.88c0,0,7.41-7.42,14.82-7.42h14.82c7.41,0,7.41,0,7.41,7.42l7.41,7.41c7.42,14.82,7.42,22.23,7.42,29.64s7.41,22.24,7.41,29.65,7.41,22.23,7.41,29.64,7.41,22.24,7.41,29.65,7.41,14.82,7.41,14.82,7.41,7.41,14.82,7.41c7.41,7.42,22.24,7.42,29.65,7.42s14.82,7.41,22.23,7.41,14.83,7.41,22.24,7.41,14.82,7.41,29.64,7.41c7.42,0,14.83,7.41,22.24,14.82s7.41,14.83,7.41,14.83V4432c0,7.41-7.41,14.82-14.82,22.23-14.83,7.42-37.06,22.24-51.88,29.65q-33.36,11.11-44.47,22.23L1595.31,4521v14.82c0,44.47,7.41,74.11,7.41,118.58,0,14.83,0,22.24-14.82,29.65-7.42,7.41-29.65,7.41-44.47-7.41-14.83-7.41-22.24-14.83-37.06-22.24s-22.23-22.23-37.06-29.64-22.23-22.24-29.64-29.65-22.24-14.82-29.65-22.23-14.82-7.41-14.82-7.41h-14.82c-29.65,7.41-66.71,14.82-88.94,14.82-29.65,7.41-59.29,7.41-88.94,7.41-7.41,0-7.41,0-14.82-7.41-7.41,0-7.41-7.41-7.41-7.41,0-7.41-7.41-7.41-7.41-14.83v-7.41c14.82-14.82,22.23-37,37.05-51.88s22.24-37,37.06-59.29c7.41-7.41,7.41-14.82,7.41-14.82,0-7.41,0-7.41-7.41-14.82,0-7.42-7.41-14.83-7.41-22.24-7.41-7.41-7.41-14.82-14.82-29.64-7.41-7.42-7.41-22.24-14.83-29.65s-7.41-22.23-14.82-29.65c0-7.41-7.41-14.82,0-22.23,0-7.41,7.41-7.41,7.41-14.82,7.41,0,7.41-7.41,14.83-7.41h22.23c7.41,0,14.82,7.41,22.24,7.41s22.23,7.41,29.64,7.41,22.24,7.41,29.65,7.41C1321.08,4298.62,1328.5,4298.62,1335.91,4298.62Zm59.29,51.88c-7.41,7.42-7.41,7.42-14.82,7.42h-22.24c-22.23-7.42-37.06-14.83-59.29-22.24-14.82-7.41-37.06-14.82-59.29-22.23,0,7.41,7.41,14.82,7.41,22.23,7.41,7.41,7.41,14.82,14.82,29.65,7.41,7.41,14.82,22.23,14.82,29.64,7.42,7.41,7.42,14.83,14.83,22.24,0,7.41,7.41,14.82,7.41,14.82v14.82c0,7.41,0,7.41-7.41,7.41,0,0-7.41,7.42-7.41,14.83q-11.13,22.23-22.24,44.47c-7.41,14.82-22.23,29.64-37.06,51.88,59.3-7.42,88.94-14.83,140.82-29.65h29.65c7.41,0,7.41,0,14.82,7.41,7.41,0,7.41,7.41,14.82,7.41l22.24,22.24,29.64,29.64,29.65,29.65c14.82,7.41,22.23,14.82,37.06,22.23,0-22.23-7.42-44.47-7.42-66.7s-7.41-37.06-7.41-59.29v-22.24c0-7.41,7.41-7.41,14.83-14.82,14.82-7.41,29.64-14.82,51.87-22.23,14.83-7.41,29.65-14.83,51.88-22.24,7.42-7.41,7.42-7.41,7.42-14.82,0,0-7.42-7.41-14.83-7.41-14.82-7.41-29.64-7.41-51.88-14.82-14.82-7.42-37.05-7.42-51.88-14.83-7.41,0-7.41,0-14.82-7.41,0,0-7.41,0-7.41-7.41,0,0,0-7.41-7.41-7.41v-7.41c-7.41-14.83-7.41-29.65-14.82-44.47-7.42-22.24-7.42-44.47-14.83-66.7C1461.9,4298.62,1439.67,4313.45,1395.2,4350.5Z"/>
            <path class="cls-3"
                  d="M1914,4409.8h29.64s7.42,0,7.42-7.42l7.41-7.41c14.82-14.82,22.23-37.05,37-51.88s22.24-44.47,37.06-66.7c0-7.41,7.41-7.41,7.41-7.41h22.24s7.41,0,7.41,7.41c7.41,7.41,14.82,22.23,14.82,29.65,7.41,7.41,7.41,14.82,14.82,29.64,7.41,7.41,7.41,14.82,14.82,29.65,7.42,7.41,7.42,14.82,14.83,29.64l14.82,14.83s7.41,7.41,22.23,7.41h103.77c7.41,0,14.82,7.41,22.23,7.41,7.41,7.41,14.82,7.41,14.82,14.82s7.41,14.82,0,22.24c0,7.41-7.41,14.82-14.82,22.23l-44.47,44.47c-14.82,14.82-29.64,22.23-37.06,29.64s-7.41,7.42-7.41,14.83,0,7.41,7.41,14.82c14.83,44.47,22.24,66.7,37.06,111.17,7.41,14.82,0,22.24-7.41,37.06-7.41,7.41-22.23,7.41-44.47,7.41-14.82,0-29.64-7.41-44.47-14.82s-29.64-14.83-44.47-14.83c-14.82-7.41-29.64-14.82-37.05-22.23s-22.24-14.82-29.65-14.82c-7.41-7.41-14.82-7.41-14.82-7.41s-7.41,0-14.82,7.41c-29.65,14.82-59.29,29.64-81.53,37.05-22.23,14.83-51.88,22.24-81.52,29.65h-14.83c-7.41,0-7.41,0-14.82-7.41l-7.41-7.41v-14.83c7.41-22.23,14.82-44.46,22.23-59.29l22.24-66.7v-14.82c0-7.41,0-7.41-7.41-14.83,0-7.41-7.41-14.82-14.83-14.82L1810.24,4521,1788,4498.73c-7.42-7.41-14.83-14.82-22.24-29.64-7.41-7.41-7.41-14.83-7.41-22.24s0-14.82,7.41-14.82c0-7.41,7.41-7.41,14.82-7.41h103.76C1899.18,4409.8,1906.59,4409.8,1914,4409.8Zm66.7,29.64c0,7.41-7.41,7.41-14.82,14.82-7.41,0-14.82,7.42-22.24,0-22.23,0-44.46,0-59.29-7.41-14.82,0-37-7.41-59.29-7.41,0,7.41,7.41,7.41,14.82,14.82s14.83,14.83,22.24,22.24l22.23,22.23q11.12,11.12,22.24,22.24c7.41,7.41,7.41,14.82,7.41,14.82v37.06c0,14.82-7.41,29.64-14.82,44.47s-14.83,37.05-22.24,59.29c51.88-22.24,81.53-37.06,133.41-66.71,7.41,0,7.41-7.41,14.82-7.41h29.64c7.42,0,7.42,0,14.83,7.41s22.23,14.83,29.64,14.83c7.41,7.41,22.24,14.82,37.06,22.23s22.23,14.82,37.06,22.24S2203,4684,2217.87,4684c-7.42-22.24-14.83-37.06-22.24-59.29s-14.82-37.06-22.23-59.29c0-7.42-7.41-22.24,0-22.24,0-7.41,7.41-14.82,7.41-14.82,14.82-14.82,29.64-22.24,44.47-37.06,14.82-7.41,29.64-22.23,44.46-37.06,7.42-7.41,7.42-7.41,0-14.82,0,0-7.41-7.41-14.82-7.41h-126s-7.41,0-7.41-7.41c0,0,0-7.41-7.41-7.41q-11.13-11.11-22.24-44.47c-7.41-14.82-22.23-37.06-29.64-59.29C2025.17,4372.74,2017.76,4395,1980.7,4439.44Z"/>
            <path class="cls-3"
                  d="M2499.5,4365.33c7.41,0,14.82,0,22.23-7.41,7.42,0,7.42,0,7.42-7.42l7.41-7.41s0-7.41,7.41-7.41c7.41-22.23,14.82-37.06,22.23-59.29s14.83-44.47,22.24-74.11c0-7.42,7.41-7.42,7.41-7.42,7.41,0,7.41-7.41,14.82-7.41h14.82q11.13,11.11,22.24,22.24l22.23,22.23q11.11,11.11,22.24,22.24l22.23,22.23c7.41,7.41,14.82,7.41,14.82,7.41h22.24c14.82,0,22.23,0,29.64-7.41,7.42,0,14.83,0,22.24-7.41,7.41,0,14.82,0,22.23-7.41s14.83,0,29.65-7.41h29.65c7.41,0,14.82,7.41,14.82,7.41,7.41,7.41,7.41,14.82,7.41,22.23s0,14.82-7.41,22.24c-7.41,14.82-22.24,37.05-29.65,51.88-14.82,14.82-22.23,29.64-29.64,37.05s-7.41,14.83-7.41,14.83c0,7.41,7.41,7.41,7.41,14.82,29.64,37.06,37.05,59.29,66.7,96.35,7.41,14.82,7.41,22.23,0,37.05-7.41,7.42-22.24,14.83-44.47,14.83h-44.47c-14.82,0-29.64-7.41-44.47-7.41s-29.64-7.42-44.46-7.42-22.24-7.41-37.06-7.41H2670s-7.41,0-14.82,7.41c-22.23,22.24-51.88,44.47-74.11,59.3s-44.47,37.05-74.12,44.46h-29.64c-7.41,0-7.41-7.41-7.41-7.41v-14.82c0-22.23,7.41-44.47,7.41-66.7v-81.53c0-7.41-7.41-7.41-14.82-14.82s-14.83-7.41-22.24-14.82-14.82-7.42-29.64-14.83c-7.42-7.41-22.24-14.82-29.65-14.82-7.41-7.41-22.24-14.82-29.65-22.23s-7.41-14.83-14.82-14.83v-14.82c0-7.41,7.41-7.41,14.82-14.82s14.83-7.41,22.24-7.41,14.82,0,22.23-7.42c7.41,0,22.24-7.41,29.65-7.41s22.23-7.41,29.64-7.41C2477.27,4372.74,2492.09,4365.33,2499.5,4365.33Zm74.11,14.82c0,7.41-7.41,7.41-7.41,14.82-7.41,7.41-14.82,7.41-22.23,7.41-22.24,7.42-44.47,7.42-59.29,7.42s-37.06,7.41-59.29,7.41c0,7.41,7.41,7.41,14.82,14.82s14.82,7.41,29.64,14.82c7.42,7.41,22.24,14.83,29.65,14.83,7.41,7.41,14.82,7.41,22.23,14.82l14.83,14.82,7.41,7.41v74.12c0,14.82,0,37-7.41,66.7,44.47-37.06,66.7-59.29,111.17-96.35,7.41,0,7.41-7.41,14.82-7.41s7.41-7.41,14.82-7.41H2707c7.41,0,22.23,7.41,37.06,7.41s22.23,7.41,37.05,7.41,29.65,7.41,44.47,7.41,29.65,7.41,44.47,7.41c-14.82-14.82-22.24-37.05-37.06-51.88s-22.23-37.05-29.64-51.88c-7.41-7.41-7.41-14.82-7.41-22.23s0-14.82,7.41-22.23c7.41-14.83,22.23-29.65,29.64-44.47s22.24-29.65,29.65-44.47c7.41-7.41,7.41-7.41,0-14.82h-14.82c-14.83,0-29.65,7.41-51.88,14.82-14.83,7.41-37.06,7.41-51.88,14.82h-29.65l-7.41-7.41L2670,4291.21l-44.47-44.46C2595.85,4306,2588.44,4328.27,2573.61,4380.15Z"/>
            <path class="cls-3"
                  d="M3055.36,4180c7.41,0,14.82-7.41,14.82-7.41,7.41,0,7.41-7.41,7.41-7.41s0-7.41,7.41-7.41V4143c0-22.23,7.41-44.46,7.41-66.7s0-51.88,7.41-74.11c0-7.41,0-7.41,7.42-14.83l7.41-7.41h14.82c14.82,7.41,22.23,7.41,29.65,14.83s14.82,7.41,29.64,14.82c7.41,7.41,14.82,7.41,22.24,14.82s14.82,7.41,29.64,14.82c7.41,0,14.82,7.42,14.82,7.42,7.42,0,14.83,0,22.24-7.42,14.82-7.41,22.23-7.41,29.64-14.82s14.83-7.41,22.24-14.82,14.82-7.41,22.23-14.82,14.83-7.42,29.65-14.83c7.41-7.41,14.82-7.41,29.64-7.41,7.42,0,14.83,0,22.24,7.41,7.41,0,7.41,7.41,14.82,14.83v29.64c-7.41,22.24-14.82,37.06-22.23,59.29s-14.83,37.06-22.24,44.47V4143s7.41,7.42,14.83,14.83c37.05,29.64,51.88,44.47,88.93,81.52,14.83,7.41,14.83,22.24,14.83,29.65-7.42,14.82-14.83,22.23-37.06,29.64-14.82,7.42-29.65,7.42-44.47,7.42s-29.65,7.41-44.47,7.41H3292.52l-14.82,14.82c-22.24,29.65-37.06,51.88-59.29,74.11-14.82,22.24-37.06,44.47-59.29,66.71-7.42,0-7.42,7.41-14.83,7.41h-14.82c-7.41,0-7.41,0-14.82-7.41l-7.41-7.41c0-22.24-7.41-44.47-7.41-66.71-7.42-22.23-7.42-44.47-14.83-66.7,0-7.41,0-14.82-7.41-14.82,0,0-7.41-7.41-14.82-7.41s-14.82-7.42-22.24-7.42-22.23-7.41-29.64-7.41-22.24-7.41-29.65-7.41-22.23-7.41-29.64-14.82-14.83-7.41-14.83-14.82-7.41-7.42,0-14.83c0-7.41,0-7.41,7.42-14.82l14.82-14.82c7.41,0,14.82-7.41,22.23-14.83s14.83-7.41,29.65-14.82c7.41-7.41,14.82-7.41,29.64-14.82C3040.53,4187.45,3048,4187.45,3055.36,4180Zm81.52-7.41c0,7.41,0,14.82-7.41,14.82,0,7.41-7.41,7.41-22.23,14.83-22.24,7.41-37.06,14.82-59.3,22.23-14.82,7.41-37.05,14.82-59.29,22.23,7.41,0,14.83,7.42,22.24,7.42s22.23,7.41,29.64,7.41,22.24,7.41,29.65,7.41,22.23,7.41,29.65,7.41,14.82,7.41,14.82,7.41c7.41,0,7.41,7.41,7.41,7.41s0,7.41,7.41,7.41v14.83c7.41,14.82,7.41,29.64,14.82,44.47,0,14.82,7.41,37.05,7.41,59.29,37.06-44.47,51.88-74.12,88.94-118.59,7.41-7.41,7.41-7.41,7.41-14.82l7.41-7.41s7.41-7.41,14.83-7.41h133.4c14.82,0,29.65-7.41,44.47-7.41-14.82-14.83-29.65-29.65-51.88-44.47-14.82-14.82-29.65-29.65-44.47-37.06-7.41-7.41-14.82-14.82-14.82-22.23v-22.24c7.41-14.82,14.82-37,22.23-51.88s14.83-37.05,22.24-51.88V4017h-14.83l-44.46,22.23c-14.83,7.42-37.06,22.24-51.88,29.65-7.42,0-7.42,7.41-14.83,7.41h-14.82s-7.41,0-7.41-7.41c-14.82-7.41-22.23-14.82-44.47-22.23-14.82-7.42-37.06-22.24-59.29-37.06C3144.29,4091.1,3136.88,4120.75,3136.88,4172.63Z"/>
            <path class="cls-2" d="M328,1297S-435.42,2638.47,461.36,3639"/>
            <path class="cls-2" d="M3818.73,1156.18s993.13,1311.82,0,2527.3"/>
            <ellipse class="cls-4" cx="2052.64" cy="2487.08" rx="177.88" ry="66.71"
                     transform="translate(-725.19 4124.93) rotate(-80.99)"/>
        </g>
    </g>
</svg>