<svg xmlns="http://www.w3.org/2000/svg" viewBox="0 0 4577.57 5101.49">
    <defs>
        <style>
            .cls-1{fill:#fff;}.cls-1,.cls-2,.cls-3{stroke:#fe8045;stroke-linecap:round;stroke-width:50px;}.cls-1,.cls-3{stroke-linejoin:round;}.cls-2,.cls-3{fill:none;}.cls-2{stroke-miterlimit:10;}.cls-4{fill:#fe8045;}
        </style>
    </defs>
    <g id="레이어_2" data-name="레이어 2">
        <g id="레이어_1-2" data-name="레이어 1">
            <path class="cls-1"
                  d="M3028.83,3369.65c117.54-70.53,86.2-1410.55,86.2-1410.55-7.84-109.71-94-242.93-141.06-305.62-15.67-23.51-54.85-31.35-78.36-7.84-70.53,62.69-141.06,195.91-172.4,258.6-7.84,15.68-23.51,23.51-47,31.35l-768,39.18c-15.67,0-39.18-7.83-47-23.51-94-133.22-195.91-188.07-250.76-211.58-23.51-7.84-47-7.84-62.69,15.67-86.2,164.57-78.37,282.11-70.53,337,0,7.83,0,23.51-7.84,31.34-117.54,242.93-141.05,1253.83-141.05,1253.83S2112,3918.2,3028.83,3369.65Z"/>
            <line class="cls-2" x1="1986.59" y1="2296.06" x2="1970.91" y2="2405.77"/>
            <line class="cls-2" x1="2448.93" y1="2327.41" x2="2433.26" y2="2429.28"/>
            <path class="cls-3" d="M2135.48,2445l141.05,31.34-94,368.31S2104.13,2531.16,2135.48,2445Z"/>
            <line class="cls-3" x1="2300.04" y1="1951.26" x2="2300.04" y2="1708.33"/>
            <path class="cls-4"
                  d="M623.05,807.15c15.67,0,31.35,0,39.18,7.84,15.68,0,23.51,7.83,31.35,15.67,0,0,7.84,7.83,7.84,15.67V862c0,7.84-7.84,15.68-15.68,23.51s-15.67,15.67-31.34,15.67c-7.84,0-15.67,7.84-23.51,7.84H513.34c-7.83,47-7.83,70.53-7.83,125.38,0,15.68,0,23.51-7.84,31.35s-7.84,15.67-15.67,23.51l-7.84,7.83c-7.84,7.84-15.67,7.84-23.51,7.84s-7.83-7.84-15.67-7.84c-7.84-7.83-7.84-7.83-7.84-15.67V901.18L395.8,869.84c0,7.83-7.84,7.83-15.68,15.67S364.45,901.18,364.45,909l-15.67,15.67-15.67,15.68c-7.84,7.83-15.68,7.83-23.51,15.67H286.09c-7.84,0-7.84,0-15.68-7.84l-15.67-15.67V909c0-7.84,7.84-15.67,7.84-23.51s7.83-7.84,7.83-15.67l7.84-7.84,7.84-7.83c23.51-23.51,31.34-39.19,54.85-54.86-7.83-7.84-7.83-15.67-15.67-31.34,0-7.84,0-23.51,7.83-39.19l23.51-23.51c7.84-7.83,15.68-7.83,23.51-7.83h23.51c7.84,0,15.68,7.83,23.51,7.83h0l39.18-39.18c15.68-15.67,31.35-23.51,39.19-31.34s23.5-7.84,39.18-7.84c0,0,7.83,0,7.83,7.84,7.84,0,7.84,7.83,7.84,15.67s7.84,7.83,7.84,15.67v15.67c0,7.84-7.84,7.84-7.84,15.68s-7.84,7.83-7.84,15.67c-7.83,7.84-7.83,7.84-15.67,15.67-7.84,0-7.84,7.84-15.67,15.67L505.5,760.13,489.83,775.8l7.84,7.84h0l7.83,7.83s7.84,7.84,7.84,15.67H623.05ZM662.23,1246H638.72c-7.83,0-15.67-7.84-15.67-7.84-7.83-7.84-15.67-7.84-23.51-15.67s-15.67-7.84-15.67-15.67l-23.51-23.51c-7.83-7.84-15.67-15.68-23.51-31.35-7.83-7.84-7.83-15.67-7.83-15.67,0-7.84,0-15.67,7.83-23.51,7.84-15.67,15.68-31.35,31.35-39.18C677.91,956,740.6,901.19,866,815c7.84-7.84,15.67-7.84,31.35-15.68,7.83-7.83,15.67-7.83,31.34-7.83,7.84,0,23.51,0,31.35,7.83l23.51,23.51c7.83,7.84,7.83,15.67,15.67,23.51s7.84,15.67,15.67,31.35c7.84,7.83,7.84,23.51,15.68,31.34s7.83,15.68,7.83,31.35V956c0,7.84,0,7.84-7.83,15.67,0,7.84-7.84,7.84-15.68,15.68s-7.83,7.83-15.67,7.83c-125.38,86.2-188.07,141.06-305.62,258.6l-15.67,15.68C677.91,1246,670.07,1246,662.23,1246Zm0-117.55h0l7.84,7.84h7.84l7.83-7.84,7.84-7.84c70.53-70.52,109.71-101.87,188.07-164.56,7.84-7.84,15.68-7.84,15.68-15.67,7.83,0,7.83-7.84,15.67-7.84s7.83-7.83,15.67-7.83l7.84-7.84V909l-7.84-7.83c0-7.84-7.84-7.84-7.84-7.84-7.83,0-7.83,0-15.67,7.84-7.83,0-7.83,7.83-15.67,7.83-70.53,54.86-101.87,86.2-172.4,148.89l-23.51,23.51-23.51,23.51-7.84,7.84v7.84s0,7.83,7.84,7.83c-23.51-7.84-15.67,0-7.84,0ZM850.31,619.08c15.67,23.5,23.51,31.34,39.18,54.85,0,7.84,7.84,7.84,7.84,15.67v15.67c0,7.84,0,15.68-7.84,23.51,0,7.84-7.84,15.68-15.67,23.51s-15.68,7.84-23.51,7.84H834.64s-7.84,0-15.68-7.84c0,0-7.83-7.83-15.67-7.83-54.85-78.37-78.36-117.55-133.22-203.75,0,0-7.83-7.83-7.83-15.67-7.84,0-7.84-7.84-7.84-15.67,0-15.68,7.83-23.51,23.51-39.19s31.34-23.51,47-23.51c7.83,0,7.83,0,15.67,7.84l7.83,7.84c7.84,0,7.84,7.83,7.84,7.83,0,7.84,7.84,7.84,7.84,15.68,7.83,15.67,15.67,23.51,23.51,39.18v15.67s0,7.84,7.83,7.84c0,0,7.84,0,7.84-7.84,7.84,0,7.84-7.84,15.67-7.84S834.63,525,834.63,525c7.84,0,7.84-7.84,15.68-7.84,7.83-7.83,23.51-7.83,23.51-7.83,7.83,0,7.83,0,15.67,7.83,0,0,7.84,7.84,7.84,15.67s7.83,15.68,7.83,15.68c0,15.67-7.83,23.51-15.67,31.34S866,595.56,850.31,611.24C858.14,619.08,858.14,619.08,850.31,619.08Z"/>
            <path class="cls-4"
                  d="M913,352.64c0-7.84,7.84-15.67,7.84-23.51,7.83-7.84,15.67-15.67,23.51-15.67S960,305.62,960,305.62c7.83,0,15.67-7.84,15.67-7.84,15.67,0,23.51,0,31.35,7.84l23.51,23.51c7.83,7.84,15.67,23.51,15.67,31.34,7.83,15.68,7.83,23.51,15.67,31.35,39.18,78.36,54.85,117.55,94,195.91,7.83,7.84,7.83,15.67,15.67,23.51s7.84,15.67,7.84,31.35c0,7.83,0,15.67-7.84,23.5s-15.67,15.68-23.51,23.51-23.51,7.84-31.35,7.84-15.67,0-23.51-7.84c0,0-7.83-7.83-7.83-15.67s-7.84-7.83-7.84-15.67c-7.83-7.84-7.83-15.67-15.67-23.51s-7.84-15.67-15.67-23.51C999.2,525,975.69,478,928.67,391.82c0-7.84-7.83-15.67-7.83-23.51C905.16,368.31,905.16,360.47,913,352.64Zm297.78,376.14h0c7.84,7.84,7.84,7.84,15.67,7.84,0,7.84,7.84,7.84,7.84,15.67s7.84,7.84,7.84,15.68v15.67c0,7.84,0,7.84-7.84,15.67,0,7.84-7.84,7.84-15.67,15.67s-15.67,7.84-15.67,7.84h-23.51c-7.84,0-15.68,0-15.68-7.84l-15.67-15.67c-7.84-7.83-7.84-15.67-7.84-23.51s0-15.67,7.84-23.51l15.67-15.67c7.84-7.84,15.68-7.84,23.51-15.67C1187.27,728.78,1195.11,728.78,1210.78,728.78Z"/>
            <path class="cls-4"
                  d="M1649.62,62.69c23.51-7.83,47-7.83,62.69-7.83s31.35,0,39.18,7.83l7.84,7.84v31.34c0,7.84-7.84,7.84-7.84,7.84-7.83,0-7.83,7.84-15.67,7.84s-7.84,7.83-15.67,7.83-15.67,0-23.51,7.84c-7.84,0-15.67,0-23.51,7.83-23.51,7.84-31.35,7.84-54.86,15.68,0,7.83,0,15.67,7.84,23.51s0,15.67,7.84,15.67v7.83s7.83,7.84,15.67,7.84c7.84,7.84,15.67,7.84,23.51,7.84s15.67,7.83,23.51,7.83,15.67,7.84,23.51,7.84,7.83,7.84,15.67,7.84l7.84,7.83c15.67,7.84,23.51,15.68,39.18,23.51s23.51,15.67,23.51,31.35v15.67c0,7.84,0,7.84-7.84,15.67s-15.67,7.84-31.34,15.68h-31.35c-7.84,0-23.51-7.84-31.34-7.84-7.84-7.84-23.51-7.84-31.35-15.67s-23.51-7.84-31.35-15.68-15.67-7.83-23.51-15.67-15.67-7.83-23.51-15.67c-7.83,7.84-7.83,15.67-15.67,23.51,0,7.83-7.83,7.83-7.83,15.67s-7.84,7.84-7.84,15.67c-7.84,7.84-7.84,15.68-15.67,23.51L1524.24,384c-15.67,23.51-39.18,31.35-54.86,39.18h-15.67c-15.67,0-23.51,0-23.51-7.83-7.83-7.84-7.83-7.84-7.83-15.67V376.15c0-7.84,7.83-15.68,7.83-23.51S1438,337,1438,329.13s7.83-15.68,15.67-31.35,15.67-23.51,23.51-39.18,15.67-23.51,23.51-31.35l15.67-15.67c-7.83-23.51-7.83-31.34-15.67-54.85-23.51,7.83-31.35,7.83-54.86,15.67-7.83,0-15.67,7.84-23.5,7.84s-15.68,7.83-23.51,7.83h-23.51c-7.84,0-15.68-7.83-23.51-7.83-7.84-7.84-7.84-7.84-7.84-15.68s-7.84-15.67-7.84-15.67c0-7.84,7.84-15.67,7.84-15.67,7.84-7.84,15.67-7.84,23.51-15.67C1469.38,101.87,1524.24,86.2,1649.62,62.69Zm321.29,493.69h23.51c7.84,0,7.84,7.84,15.67,15.68,7.84,15.67,0,31.34-15.67,39.18-7.83,0-7.83,7.84-15.67,7.84h-15.67c-133.22,15.67-195.91,23.5-321.3,62.69-7.83,0-15.67,7.83-31.34,7.83-7.84,0-23.51,7.84-31.35,7.84h-23.51c-7.83-7.84-15.67-15.67-15.67-23.51s-7.83-15.67-7.83-23.51-7.84-15.67-7.84-23.51v-7.84c0-7.83,0-7.83-7.84-15.67V579.89l23.51-23.51c7.84-7.83,23.51-7.83,31.35-15.67,7.83,0,7.83,0,15.67-7.84h15.67c125.39-39.18,195.91-47,329.13-62.69V438.84c-133.22,15.67-203.74,31.34-337,70.53h-15.68c-7.83,0-7.83,0-15.67,7.83-7.84,0-7.84,0-15.67,7.84H1516.4c-7.83,0-7.83,0-7.83-7.84-7.84-7.83-15.68-15.67-15.68-31.34,0-7.84,0-7.84,7.84-7.84l7.84-7.84,7.83-7.83s7.84,0,7.84-7.84c0,0,7.84,0,7.84-7.84,0,0,7.83,0,15.67-7.83h31.34c141.06-39.18,211.59-54.86,352.64-70.53,23.51,0,47,0,62.69,7.84s23.51,15.67,23.51,39.18,0,31.34,7.84,54.85v23.51c0,7.84-7.84,15.68-15.67,15.68-7.84,7.83-15.68,7.83-15.68,7.83h-15.67c-141,15.67-211.58,31.35-344.8,70.53,0,15.67,7.84,23.51,7.84,31.34C1743.66,579.89,1822,564.22,1970.91,556.38Zm0-337c0,23.51,0,39.18,7.84,62.69,0,15.67,0,23.51-7.84,31.35s-15.67,15.67-39.18,15.67h-23.51c-7.83-7.84-15.67-7.84-23.51-15.67,0-7.84-7.83-15.68-7.83-15.68-7.84-86.2-15.68-133.21-23.51-219.42V62.69c0-7.83,0-15.67,7.83-23.51s15.67-15.67,31.35-23.51c23.51-7.83,39.18,0,47,7.84,7.83,0,7.83,7.84,7.83,7.84s0,7.83,7.84,7.83c0,7.84,0,7.84,7.84,15.67V78.36c0,23.51,0,39.19,7.83,62.7h78.37c7.83,0,23.5,7.83,23.5,7.83,7.84,0,7.84,7.84,7.84,15.67v15.68c0,7.83,0,15.67-7.84,15.67-7.83,7.84-15.67,15.67-31.34,15.67s-31.35,0-47,7.84Z"/>
            <path class="cls-4"
                  d="M2448.93,227.26c0,23.5-7.83,39.18-23.51,54.85s-31.34,31.35-47,39.18C2354.9,337,2323.55,344.8,2300,344.8c-31.34,0-54.85-7.83-86.2-15.67-23.51-7.84-47-23.51-62.69-47s-31.35-47-31.35-70.53c0-15.67,0-31.34,7.84-47s15.67-23.5,23.51-39.18h-7.84c-15.67,0-23.51,0-31.34-7.83s-15.68-15.68-15.68-23.51,7.84-23.51,15.68-31.35,23.51-7.83,31.34-7.83h94V31.35c0-7.84,7.84-15.68,15.67-23.51S2276.53,0,2292.2,0s23.51,7.84,39.19,7.84c7.83,7.83,15.67,15.67,15.67,23.51V54.86c39.18,0,62.69,7.83,101.87,7.83,15.67,0,23.51,7.84,31.35,15.67S2496,94,2488.11,109.71c0,7.84-7.83,15.67-15.67,23.51s-23.51,7.84-39.18,7.84h-7.84c7.84,7.83,15.68,23.5,15.68,39.18C2448.93,195.91,2448.93,211.58,2448.93,227.26ZM2260.86,556.38c-7.84,7.84-7.84,15.68-15.67,23.51s-15.68,7.84-15.68,15.68c-7.83,7.83-15.67,7.83-23.51,7.83h-23.5c-7.84,0-15.68-7.83-15.68-15.67V564.22c0-7.84,7.84-15.67,15.68-23.51s7.83-15.67,15.67-15.67c7.83-15.67,15.67-31.35,23.51-39.18,7.83-15.68,15.67-31.35,31.34-39.19L2268.7,431l15.67-15.67c7.83-7.84,15.67-7.84,23.51-15.67,7.83,0,15.67-7.84,23.51-7.84s15.67,0,23.51,7.84l15.67,15.67c7.83,7.84,7.83,15.67,15.67,15.67,0,7.84,7.84,15.67,7.84,15.67,15.67,31.35,31.34,62.7,39.18,86.21,7.84-7.84,23.51-23.51,31.35-39.19s23.5-23.51,31.34-31.34L2527.3,431c15.67-7.83,31.34-15.67,47-15.67,7.84,0,15.68,0,23.51,7.84l15.68,15.67c0,7.83,7.83,15.67,7.83,23.51s7.84,15.67,7.84,15.67c7.84,23.51,15.67,39.18,23.51,62.69s15.67,39.18,23.51,62.69c0,7.84,0,7.84,7.83,15.68v31.34c0,7.84,0,7.84-7.83,15.67s-15.67,7.84-23.51,7.84-15.67-7.84-23.51-7.84c-15.67-15.67-23.51-31.34-31.35-47s-15.67-39.18-23.51-54.85c-7.83-7.84-7.83-15.67-15.67-15.67s-7.83,0-15.67,7.83l-15.67,15.68c-7.84,7.83-15.68,7.83-15.68,15.67l-31.34,31.34c-7.84,7.84-23.51,15.68-39.18,7.84h-15.68c-7.83,0-15.67-7.84-15.67-15.67-15.67-7.84-23.51-23.51-31.34-39.18s-15.68-31.35-23.51-47l-15.68-15.67c-7.83,0-7.83,7.83-15.67,15.67s-7.84,15.67-15.67,15.67C2276.53,540.71,2268.7,548.55,2260.86,556.38Zm31.34-289.94c15.68,0,31.35-7.84,39.19-15.68s15.67-15.67,15.67-39.18c0-15.67-7.84-31.34-15.67-47-15.68-7.83-31.35-15.67-47-15.67s-31.35,0-47,15.67q-23.51,11.76-23.51,47c0,15.68,0,23.51,7.84,31.35s7.83,15.67,15.67,15.67c7.84,7.84,15.67,7.84,23.51,7.84Zm399.66,109.71h0c0,7.83-7.84,7.83-7.84,15.67l-7.83,7.84s-7.84,7.83-15.67,7.83h-15.68c-7.83,0-15.67-7.83-23.51-15.67s-7.83-7.84-7.83-15.67q-11.76-23.52,0-47c0-15.67,7.83-31.35,7.83-47v-7.84H2590c-7.84,23.51-7.84,39.19-7.84,62.7,0,7.83,0,7.83-7.83,15.67,0,7.83-7.84,7.83-7.84,15.67-7.84,7.84-7.84,7.84-15.67,7.84s-7.84,0-7.84,7.83h-7.84c-7.83,0-15.67-7.83-23.5-7.83s-7.84-7.84-7.84-15.68-7.84-7.83-7.84-15.67V329.13c15.68-94,23.51-148.89,31.35-242.93V70.53c0-7.84,7.83-15.67,7.83-23.51,7.84-7.84,23.51-15.67,39.19-15.67,7.83,0,15.67,0,23.51,7.83,7.83,0,7.83,7.84,15.67,15.68,0,7.83,7.83,7.83,7.83,15.67v54.85c-7.83,23.51-7.83,39.18-7.83,62.69,0,0,7.83,0,15.67,7.84,7.84,0,15.67,0,23.51,7.84,7.84-23.51,7.84-39.19,15.67-70.53V109.71c0-7.84,0-7.84,7.84-15.67,0-7.84,7.84-15.68,23.51-15.68q11.76-11.74,47,0c15.67,7.84,23.51,15.68,31.34,23.51v39.19C2723.21,227.26,2715.37,274.27,2691.86,376.15Z"/>
            <path class="cls-4"
                  d="M3036.66,156.73c7.84,0,15.67,7.83,23.51,7.83s15.67,7.84,23.51,7.84c23.51,7.84,39.18,31.35,47,47s15.67,39.18,15.67,54.85v54.86c0,15.67-7.83,39.18-7.83,54.85-7.84,15.67-7.84,39.18-15.68,54.86-7.83,23.51-15.67,39.18-23.51,62.69s-23.51,39.18-31.34,62.69-23.51,39.18-39.18,62.69c-15.68,15.67-31.35,39.18-47,47l-47,23.51c-15.67,0-31.35,7.83-54.86,0-15.67,0-31.34-7.84-47-15.67s-23.51-15.68-39.19-31.35c-7.83-7.84-15.67-23.51-23.5-39.18s-7.84-31.35-15.68-47V485.86c0-23.51,7.84-39.19,15.68-62.7s7.83-39.18,15.67-62.69c0-15.67,7.83-23.51,7.83-39.18s7.84-23.51,15.68-39.18c7.83-7.84,7.83-23.51,15.67-31.35s7.84-23.51,15.67-31.34,7.84-15.67,15.67-23.51c0-7.84,7.84-15.67,15.68-23.51s15.67-15.67,23.51-15.67c7.83-7.84,15.67-7.84,23.51-15.68,15.67-7.83,31.34-7.83,47-7.83s31.35,0,54.86,7.83h7.83C3028.83,156.73,3028.83,156.73,3036.66,156.73ZM2879.93,595.57c7.84,0,15.68,7.83,31.35,0,7.84,0,15.67-7.84,23.51-15.68l23.51-23.51c15.67-15.67,23.51-39.18,31.34-62.69s15.68-47,23.51-70.52c0-7.84,7.84-15.68,7.84-31.35,0-7.84,7.84-23.51,7.84-31.35s0-23.51,7.83-31.34V297.78c0-7.83-7.83-15.67-15.67-23.51s-15.67-15.67-23.51-15.67h-31.34c-7.84,0-15.68,7.84-23.51,15.67L2927,290c-7.83,7.83-7.83,15.67-15.67,23.51s-7.84,15.67-15.67,23.5-7.84,15.68-7.84,31.35c0,7.84-7.83,15.67-7.83,31.35,0,7.83-7.84,15.67-7.84,31.34,0,7.84-7.84,15.67-7.84,31.35s-7.83,23.51-7.83,39.18-7.84,31.35-7.84,39.18c0,15.67,0,23.51,7.84,39.18C2864.26,587.73,2872.1,595.57,2879.93,595.57Zm321.3-7.84c-7.84-7.84-15.68-7.84-23.51-15.67s-23.51-7.84-23.51-15.68c-15.67-7.83-23.51-23.5-31.35-39.18,0-15.67,0-31.34,15.67-47l7.84-7.83c7.84,0,7.84-7.84,15.67-7.84h23.51c7.84,0,15.68,7.84,31.35,15.67,7.83,7.84,23.51,7.84,31.34,15.68h0c0-7.84,7.84-7.84,7.84-15.68,0,0,0-7.83,7.84-7.83v-7.84s0-7.83,7.83-15.67,7.84-23.51,15.68-31.35,7.83-23.51,15.67-31.34c0,0,0-7.84,7.83-7.84,0-7.83,7.84-15.67,7.84-15.67,0-7.84,7.84-15.67,15.67-15.67l15.68-15.68c7.83-7.83,15.67-7.83,15.67-7.83,7.83,0,23.51,0,31.34,7.83h0q23.52,11.76,23.51,23.51c7.84,7.84,7.84,23.51,7.84,31.35s0,23.51-7.84,31.34c0,7.84-7.83,15.68-7.83,23.51-86.2,156.73-125.39,235.1-211.59,384v7.83s-7.83,7.84-7.83,15.68-7.84,7.83-15.67,15.67S3169.88,862,3162,862h-15.67c-7.84,0-15.67,0-15.67-7.84-7.84-7.84-15.67-15.67-15.67-23.51V807.15c0-7.84,7.83-15.67,7.83-23.51V768c0-7.84,7.84-15.67,7.84-23.51s7.83-15.67,7.83-23.51,7.84-7.84,7.84-15.67,7.84-7.84,7.84-15.68,7.83-7.83,7.83-15.67,7.84-7.83,7.84-15.67,7.84-15.67,7.84-23.51,7.83-15.67,7.83-23.51,7.84-15.67,7.84-15.67v-7.84Z"/>
            <path class="cls-4"
                  d="M3710.59,1152h0c15.67,15.67,15.67,23.51,23.51,31.35,0,7.83,7.84,15.67,7.84,23.51s0,15.67-7.84,23.5c0,0-7.83,7.84-15.67,7.84s-7.84,7.84-15.67,7.84-7.84,0-15.68-7.84c-7.83,0-7.83-7.84-15.67-7.84l-7.83-7.83-7.84-7.84c-117.55-125.38-188.07-188.07-321.29-282.11,0,0-7.84,0-7.84-7.83-7.84,0-7.84-7.84-7.84-7.84-7.83-7.84-15.67-15.67-31.34-23.51l-23.51-23.51c-7.84-15.67,0-23.51,0-39.18,0-7.84,7.84-7.84,15.67-15.67s15.67-7.84,23.51,0c7.84,0,23.51,7.83,31.35,15.67s15.67,15.67,31.34,15.67h0c7.84,7.84,15.67,7.84,23.51,15.67s15.67,15.68,23.51,15.68v-7.84h0c15.67-23.51,23.51-31.35,39.18-54.85l7.84-7.84,7.84-7.84h15.67c-15.67-15.67-23.51-31.34-39.18-54.85-7.84-15.67-15.68-39.18-15.68-62.69s0-39.18,7.84-54.86l23.51-47c23.51-31.34,47-54.85,78.36-62.69s78.37,0,117.55,15.68c31.35,15.67,54.85,23.51,86.2,47,23.51,15.68,54.85,39.19,70.53,62.7l54.85,54.85c15.67,23.51,31.35,39.18,47,62.69,7.84,7.84,7.84,23.51,15.67,31.35,0,7.83,7.84,23.51,7.84,31.34,0,31.35,0,54.86-7.84,78.37s-23.51,39.18-39.18,54.85c-31.35,23.51-62.69,39.18-94,31.35q-47,0-94-23.51v15.67c0,7.84,0,15.67-7.84,15.67-7.83,7.84-15.67,15.68-23.51,31.35s-23.51,23.51-39.18,39.18l23.51,23.51,23.51,23.51C3694.92,1136.28,3702.76,1144.11,3710.59,1152Zm86.2-266.44c7.84,0,7.84-7.83,15.67-15.67,15.68-15.67,23.51-39.18,15.68-62.69s-15.68-47-39.18-70.53c-15.68-15.67-23.51-31.34-47-47-15.68-15.67-39.18-31.34-62.69-47s-39.19-23.5-62.7-23.5-39.18,0-47,15.67c-7.84,7.83-15.68,15.67-15.68,31.34-7.83,7.84-7.83,23.51-7.83,31.35s7.83,23.51,15.67,39.18,15.67,23.51,31.35,39.18l47,47c15.68,15.67,31.35,31.35,47,39.18,7.84,7.84,15.67,7.84,23.51,15.68s15.67,7.83,31.35,15.67c7.83,0,15.67,7.83,31.34,0C3781.12,893.35,3789,893.35,3796.79,885.51Zm-180.23,31.35c-7.84-7.84-23.51-23.51-39.19-31.35s-23.51-23.51-39.18-31.34c0,7.83,0,15.67-7.83,15.67-7.84,7.84-7.84,15.67-23.51,31.35-7.84,15.67-23.51,31.34-31.35,47,23.51,23.51,39.18,31.35,62.69,54.86,7.84,7.83,7.84,7.83,15.67,7.83,0,0,0-7.83,7.84-7.83h0c15.67-23.51,23.51-31.35,47-54.86l7.84-7.83s7.83,0,7.83-7.84h7.84c-7.84,0-7.84-7.84-15.67-7.84C3624.39,916.86,3624.39,916.86,3616.56,916.86Z"/>
            <path class="cls-4"
                  d="M1132.42,4490.25h0c7.83,7.84,7.83,15.68,15.67,15.68,15.67,7.83,31.35,23.51,47,31.34s31.34,23.51,47,31.35c0,0,7.83,7.83,15.67,7.83s7.84,7.84,15.67,7.84,7.84,7.84,7.84,7.84l7.83,7.83c0,7.84,0,15.68-15.67,23.51-7.83,0-15.67,7.84-23.51,7.84-15.67,0-31.34,7.84-47,7.84s-31.34,0-39.18,7.83c-15.67,0-23.51,0-39.18,7.84-7.84,0-15.67,7.84-23.51,7.84-7.84,7.83-7.84,15.67-7.84,23.5v125.39c0,15.67-7.83,23.51-7.83,31.34-7.84,7.84-15.67,7.84-23.51,7.84s-15.67-7.84-15.67-7.84c-7.84,0-7.84-7.83-15.68-15.67l-15.67-15.67c-7.83-7.84-7.83-7.84-7.83-15.68,0,0-7.84-7.83-7.84-15.67s-7.84-7.84-7.84-15.67c-7.83-7.84-7.83-7.84-7.83-15.67s-7.84-7.84-7.84-15.68c-7.84-15.67-15.67-23.51-23.51-31.34s-15.67-15.68-31.34-23.51c0,0-7.84-7.84-15.68-7.84H834.64c-15.68,0-23.51,0-39.19-7.84-15.67,0-31.34-7.83-47-7.83s-31.35-7.84-39.19-15.67-15.67-7.84-23.51-15.68c0-7.83,0-15.67,7.84-23.51s23.51-15.67,31.35-23.51c15.67-7.83,23.51-15.67,39.18-23.5,7.83-7.84,15.67-7.84,23.51-15.68s15.67-15.67,15.67-23.51c7.84-7.83,7.84-15.67,7.84-23.51s0-15.67-7.84-31.34c0-7.84-7.84-15.67-7.84-31.35,0-7.83-7.83-15.67-7.83-31.34,0-7.84,0-15.68-7.84-15.68,0-7.83,0-15.67-7.84-15.67v-31.34c0-7.84,7.84-15.68,15.68-15.68s15.67,0,31.34,7.84c7.84,7.84,23.51,7.84,39.18,15.67s23.51,15.68,39.19,23.51,23.51,15.67,31.34,23.51,15.68,7.84,23.51,15.67c7.84,0,15.67,7.84,23.51,7.84s15.67,0,15.67-7.84c7.84,0,7.84-7.83,15.68-7.83,7.83-7.84,7.83-7.84,15.67-7.84,7.84-7.84,15.67-7.84,23.51-15.67s15.67-7.84,23.51-15.67,15.67-7.84,23.51-15.68,15.67-7.83,31.34-7.83h15.68c7.83,0,7.83,7.83,7.83,15.67v47c0,15.67,0,23.51-7.83,39.18v62.69C1124.58,4474.58,1124.58,4482.42,1132.42,4490.25Z"/>
            <path class="cls-4"
                  d="M1728,4701.84h0c7.84,7.83,15.68,7.83,15.68,7.83,15.67,7.84,39.18,15.68,54.85,15.68,15.67,7.83,39.18,15.67,54.86,15.67,0,0,7.83,0,15.67,7.84,7.83,0,7.83,0,15.67,7.83,7.84,0,7.84,7.84,15.67,7.84l7.84,7.84c0,7.83,0,15.67-7.84,23.5s-15.67,7.84-23.51,15.68c-15.67,7.83-23.51,15.67-39.18,15.67-15.67,7.84-23.51,7.84-39.18,15.67s-23.51,7.84-31.35,15.68-15.67,7.83-15.67,15.67-7.83,15.67,0,23.51c0,7.83,0,23.51,7.84,39.18,0,15.67,7.83,31.35,7.83,39.18,0,15.67,7.84,31.35,7.84,39.18v31.35c0,7.84-7.84,15.67-15.67,15.67h-15.67c-7.84,0-15.68-7.83-15.68-7.83-7.83,0-7.83-7.84-15.67-15.68s-7.84-7.83-15.67-7.83-7.84-7.84-15.67-7.84l-15.68-15.67-15.67-15.68c-7.84-7.83-7.84-7.83-15.67-7.83-7.84-7.84-23.51-15.68-31.35-23.51s-23.51-15.67-39.18-15.67h-86.2c-15.67,0-23.51,0-39.18,7.83h-86.2c-7.84,0-15.67-7.83-23.51-15.67s-7.84-15.67,0-23.51,15.67-23.51,23.51-31.35,23.51-23.5,31.34-31.34,15.68-15.67,15.68-23.51c7.83-7.84,7.83-15.67,7.83-23.51V4780.2c0-7.83-7.83-15.67-7.83-23.51-7.84-7.83-7.84-15.67-15.68-23.51s-7.83-15.67-15.67-23.51c0-7.83-7.84-7.83-7.84-15.67s-7.83-7.84-7.83-15.67-7.84-15.67-7.84-15.67V4647c0-7.83,7.84-15.67,15.67-15.67H1391c7.84,0,23.51,7.84,39.18,7.84,15.68,7.83,31.35,7.83,39.18,15.67,15.68,7.84,23.51,7.84,39.19,15.67,7.83,0,15.67,7.84,23.51,7.84h23.51c7.83,0,7.83-7.84,15.67-7.84l15.67-15.67,15.67-15.67,23.51-23.51c7.84-7.84,15.67-15.68,15.67-23.51q11.76-11.76,23.51-23.51c7.84-7.84,15.68-7.84,23.51-15.67,7.84,0,15.68-7.84,15.68,0,7.83,0,7.83,7.83,7.83,15.67s7.84,15.67,7.84,23.51v23.51c0,15.67,0,23.51,7.84,39.18,0,15.67,7.83,23.51,7.83,39.18,0,7.84,0,15.67,7.84,23.51C1720.15,4694,1720.15,4694,1728,4701.84Z"/>
            <path class="cls-4"
                  d="M2354.9,4756.69h15.67c15.67,0,39.18,0,54.85,7.84,15.68,0,39.18,0,54.86,7.83h31.34c7.84,0,7.84,0,15.67,7.84,7.84,0,7.84,7.84,7.84,7.84q11.76,11.74,0,23.51l-15.67,15.67c-7.84,7.84-23.51,15.67-31.35,31.35-15.67,7.83-23.51,15.67-31.34,23.5s-23.51,15.68-31.35,23.51l-15.67,15.68v23.51c0,7.83,7.84,23.5,15.67,31.34,7.84,15.67,15.67,23.51,15.67,39.18,7.84,15.68,15.68,23.51,15.68,39.18,7.83,7.84,7.83,23.51,7.83,31.35s-7.83,15.67-15.67,15.67h-15.67c-7.84,0-15.67,0-15.67-7.83-7.84,0-15.68-7.84-15.68-7.84-7.83,0-7.83-7.84-15.67-7.84s-7.84,0-15.67-7.83c-7.84,0-7.84-7.84-15.68-7.84s-15.67-7.84-15.67-7.84c-7.83,0-7.83-7.83-15.67-7.83-15.67-7.84-23.51-15.67-31.35-15.67-7.83-7.84-23.51-7.84-39.18-7.84h-15.67c-7.84,0-7.84,0-15.67,7.84-7.84,0-7.84,7.83-15.68,7.83s-7.83,7.84-15.67,7.84-15.67,7.83-23.51,7.83c-7.83,7.84-23.51,7.84-39.18,15.68s-31.35,7.83-39.18,15.67c-15.67,7.84-23.51,7.84-39.18,7.84-7.84,0-23.51,0-23.51-7.84-7.84,0-7.84-7.84-7.84-23.51s7.84-23.51,15.67-39.18,15.68-23.51,23.51-39.18c7.84-7.84,7.84-15.68,7.84-31.35,0-7.83,7.84-23.51,0-31.34,0-7.84,0-15.68-7.84-23.51s-7.83-15.68-15.67-23.51l-23.51-23.51c-7.84-7.84-15.67-15.67-15.67-23.51s-7.84-7.84-15.67-15.67l-15.68-15.68c-7.83-7.83-7.83-7.83-7.83-15.67s-7.84-7.84-7.84-15.67,0-15.67,7.84-15.67c7.83-7.84,15.67-7.84,31.34-7.84h141.06c7.83,0,15.67,0,15.67-7.84,7.84,0,7.84-7.83,15.67-15.67,0-7.84,7.84-7.84,7.84-15.67s7.84-15.68,7.84-15.68c7.83-7.83,7.83-15.67,15.67-23.51s7.83-15.67,15.67-23.5,7.84-15.68,15.67-23.51,7.84-15.68,15.68-23.51,15.67-7.84,15.67-7.84c7.83,0,7.83,7.84,15.67,7.84,0,7.83,7.84,7.83,7.84,15.67C2300,4639.15,2300,4647,2300,4647c7.84,7.84,7.84,23.51,15.67,31.35s7.84,23.51,15.68,31.34c0,7.84,7.83,15.68,7.83,23.51C2347.06,4748.86,2347.06,4748.86,2354.9,4756.69Z"/>
            <path class="cls-4"
                  d="M2974,4654.82h15.67c15.68,0,39.19-7.84,54.86-7.84,15.67-7.83,39.18-7.83,54.85-7.83h47c7.84,0,7.84,0,7.84,7.83,7.83,7.84,7.83,15.68,7.83,23.51-7.83,7.84-7.83,15.67-15.67,23.51-7.84,15.67-15.67,23.51-23.51,39.18-7.84,7.84-15.67,23.51-31.34,31.35-7.84,7.83-15.68,23.51-23.51,31.34s-7.84,15.68-7.84,23.51,0,15.68,7.84,23.51,15.67,15.67,23.51,31.35c7.83,7.83,15.67,23.51,31.34,31.34,7.84,7.84,15.67,23.51,23.51,31.35s7.84,15.67,15.67,23.51c0,7.83,0,15.67-7.83,23.51-7.84,0-7.84,7.83-15.68,7.83h-78.36c-7.84,0-15.67,0-15.67-7.83-7.84,0-15.68,0-15.68-7.84-7.83,0-15.67,0-15.67-7.84-15.67-7.83-23.51-7.83-39.18-7.83h-39.18c-7.84,0-7.84,0-15.67,7.83-7.84,0-7.84,7.84-15.68,7.84s-7.83,7.84-15.67,7.84l-7.84,7.83c-7.83,0-7.83,7.84-23.51,15.68-7.83,7.83-23.5,15.67-31.34,23.51-15.67,7.83-23.51,15.67-39.18,23.5s-23.51,15.68-39.18,15.68h-23.51c-7.84,0-7.84-7.84-7.84-23.51s0-31.35,7.84-39.18c0-15.68,7.83-31.35,7.83-39.19v-62.69c0-7.83-7.83-15.67-15.67-23.51s-15.67-15.67-23.51-15.67c-7.84-7.84-15.67-7.84-23.51-15.67s-15.67-7.84-23.51-15.67c-7.83,0-7.83-7.84-15.67-7.84s-7.84-7.84-15.67-7.84-7.84-7.83-15.68-7.83c-7.83-7.84-7.83-7.84-7.83-15.68s0-15.67,7.83-23.51,15.68-7.83,23.51-15.67,23.51-7.84,39.19-7.84,31.34-7.83,39.18-7.83c15.67,0,23.51-7.84,39.18-7.84,7.84,0,15.67,0,23.51-7.83,7.83,0,15.67-7.84,15.67-7.84,0-7.84,7.84-7.84,7.84-15.67s0-15.68,7.83-15.68c0-7.83,0-15.67,7.84-15.67,0-7.84,7.84-23.51,7.84-31.34s7.83-15.68,7.83-31.35c0-7.84,7.84-15.67,7.84-31.35,0-7.83,7.83-15.67,15.67-23.51s7.84-7.83,15.67-7.83,7.84,0,15.68,7.83c7.83,0,7.83,7.84,15.67,15.68s7.84,15.67,15.67,23.51,15.67,23.51,23.51,31.34,15.67,23.51,23.51,31.35,7.84,15.67,15.67,15.67C2966.13,4647,2966.13,4647,2974,4654.82Z"/>
            <path class="cls-4"
                  d="M3561.7,4388.38h15.67c15.68-7.83,39.19-15.67,54.86-23.51s39.18-15.67,54.85-23.51c0,0,7.84-7.83,15.67-7.83s7.84-7.84,15.68-7.84h31.34c7.84,7.84,15.67,15.67,7.84,23.51,0,7.84-7.84,15.67-7.84,23.51-7.83,15.67-7.83,31.34-15.67,39.18-7.84,15.67-15.67,23.51-15.67,39.18-7.84,15.68-7.84,23.51-15.68,31.35s-7.83,15.67,0,23.51c0,7.83,7.84,15.67,15.68,23.51s15.67,15.67,31.34,23.51,23.51,15.67,39.18,23.5,23.51,15.68,31.35,23.51,15.67,15.68,15.67,23.51,0,15.68-7.83,23.51-7.84,7.84-15.68,7.84-15.67,7.83-23.51,7.83H3632.23c-15.68,0-23.51,7.84-39.18,15.68-7.84,0-7.84,7.83-15.68,7.83,0,0-7.83,7.84-7.83,15.68s-7.84,7.83-7.84,15.67-7.84,7.84-7.84,15.67-7.83,7.84-15.67,23.51c-7.84,7.84-15.67,23.51-23.51,31.35l-31.34,31.34c-7.84,7.84-23.51,15.68-31.35,23.51s-15.67,7.84-23.51,7.84-15.67-7.84-15.67-15.67c0-15.68-7.84-23.51-7.84-39.19v-78.36c0-7.84-7.83-15.67-7.83-31.35-7.84-7.83-7.84-15.67-15.68-15.67-7.83-7.84-15.67-7.84-23.51-7.84s-15.67-7.83-31.34-7.83c-7.84,0-15.67-7.84-31.35-7.84-7.83,0-7.83-7.83-15.67-7.83s-15.67,0-15.67-7.84c-7.84,0-15.68-7.84-15.68-7.84-7.83,0-7.83-7.83-15.67-7.83q-11.75-11.76,0-23.51c7.84-7.84,7.84-15.68,23.51-23.51,7.84-7.84,23.51-15.67,31.35-23.51,15.67-7.84,23.51-15.67,39.18-15.67,15.67-7.84,23.51-7.84,31.34-15.68s15.68-7.83,23.51-7.83c7.84-7.84,15.68-7.84,15.68-15.68s7.83-7.83,7.83-15.67V4349.2c0-7.84,0-15.67,7.84-31.35,0-7.83,7.84-15.67,15.67-15.67h15.67c7.84,0,15.68,7.84,15.68,7.84,7.83,7.83,15.67,7.83,23.51,15.67s15.67,15.67,31.34,23.51c7.84,7.84,23.51,15.67,31.35,23.51s15.67,7.83,15.67,15.67Z"/>
            <path class="cls-2" d="M489.83,3933.87c-956-1073.59-141-2507.65-141-2507.65"/>
            <path class="cls-2" d="M4078.9,1269.5s1065.75,1410.55,0,2711.39"/>
            <path class="cls-3"
                  d="M670.07,2648.7s-109.71,54.86,0,156.73c109.71,109.71,148.89,23.51,39.18-156.73S670.07,2648.7,670.07,2648.7Z"/>
            <path class="cls-3"
                  d="M756.27,2562.5S795.45,2680.05,913,2586c125.38-86.2,39.18-141.05-148.89-62.69C568.2,2601.68,756.27,2562.5,756.27,2562.5Z"/>
            <path class="cls-3"
                  d="M615.22,2515.48s117.54-23.51,47-156.72-133.21-62.7-86.2,141C630.89,2703.56,615.22,2515.48,615.22,2515.48Z"/>
            <path class="cls-3"
                  d="M513.34,2640.87s-39.18-109.71-141-7.84c-101.88,109.71-23.51,148.89,141.05,47S513.34,2640.87,513.34,2640.87Z"/>
            <path class="cls-3"
                  d="M2300,1583s-101.87,70.53,23.51,156.73c117.55,94,148.89,0,15.67-164.56C2206,1418.39,2300,1583,2300,1583Z"/>
            <path class="cls-3"
                  d="M2378.4,1488.92s47,109.7,156.73,7.83,23.51-148.89-156.73-47S2378.4,1488.92,2378.4,1488.92Z"/>
            <path class="cls-3"
                  d="M2229.51,1457.57s109.71-39.18,23.51-156.73c-86.2-125.38-141.05-39.18-62.69,148.89C2268.7,1645.64,2229.51,1457.57,2229.51,1457.57Z"/>
            <path class="cls-3"
                  d="M2143.31,1598.62s-54.85-109.7-141,15.68c-86.2,117.54-7.84,156.73,141,31.34C2292.2,1512.42,2143.31,1598.62,2143.31,1598.62Z"/>
            <path class="cls-3"
                  d="M3608.72,3463.69s-109.71,54.85,0,156.72c109.71,109.71,148.89,23.51,39.18-156.72S3608.72,3463.69,3608.72,3463.69Z"/>
            <path class="cls-3"
                  d="M3694.92,3377.49S3734.1,3495,3851.65,3401c125.38-86.2,39.18-141.06-148.89-62.7C3506.85,3416.67,3694.92,3377.49,3694.92,3377.49Z"/>
            <path class="cls-3"
                  d="M3553.86,3330.47s117.55-23.51,47-156.73-133.22-62.69-86.2,141.06S3553.86,3330.47,3553.86,3330.47Z"/>
            <path class="cls-3"
                  d="M3452,3455.85s-39.18-109.71-141-7.84-23.51,148.9,141,47C3616.56,3401,3452,3455.85,3452,3455.85Z"/>
        </g>
    </g>
</svg>